<?xml version="1.0" encoding="utf-8"?>
<!-- Generator: $$$/GeneralStr/196=Adobe Illustrator 27.6.0, SVG Export Plug-In . SVG Version: 6.00 Build 0)  -->
<svg version="1.1" id="Layer_1" xmlns="http://www.w3.org/2000/svg" xmlns:xlink="http://www.w3.org/1999/xlink" x="0px" y="0px"
	 viewBox="0 0 512 512" style="enable-background:new 0 0 512 512;" xml:space="preserve">
<style type="text/css">
	.st0{fill:#FFFFFF;}
</style>
<path class="st0" d="M460.4,357.6c-18.7-19.2-71.7-55.1-106.5-55.1c-8.1,0-15.1,1.8-20.8,5.5c-17,10.9-30.6,19.3-37.1,19.3
	c-3.6,0-7.4-3.2-15.9-10.5l-1.4-1.3c-23.4-20.3-28.4-25.6-37.5-35l-2.3-2.4c-1.7-1.7-3.1-3.2-4.5-4.6c-7.9-8.2-13.7-14.1-34-37.1
	l-0.9-1c-9.7-11-16.1-18.2-16.5-23.4c-0.4-5.1,4.1-13.4,15.5-28.9c13.8-18.7,14.3-41.7,1.7-68.4c-10.1-21.1-26.6-41.3-41.2-59.1
	l-1.3-1.5c-12.5-15.3-27.1-23-43.3-23c-18,0-33,9.7-40.9,14.8c-0.6,0.4-1.3,0.9-1.9,1.3C53.9,58.4,41,73.9,36.1,89.6
	C28.8,113.3,24,144,58.9,207.8c30.2,55.2,57.5,92.3,101,136.9c40.9,41.9,59.1,55.5,99.7,84.9c45.3,32.7,88.7,51.5,119.2,51.5
	c28.3,0,50.5,0,82.2-38.2C494.2,402.7,480.4,378.2,460.4,357.6z"/>
</svg>
