<svg width="80" height="81" viewBox="0 0 80 81" fill="none" xmlns="http://www.w3.org/2000/svg">
<path d="M23.6187 24.4723H46.4856C47.2408 24.4723 47.8524 23.8554 47.8524 23.0936C47.8524 22.3319 47.2408 21.7149 46.4856 21.7149H23.6187C22.8635 21.7149 22.2519 22.3319 22.2519 23.0936C22.2519 23.8554 22.8635 24.4723 23.6187 24.4723Z" fill="#5FA39A"/>
<path d="M47.8524 32.7447C47.8524 31.9829 47.2408 31.366 46.4856 31.366H23.6187C22.8635 31.366 22.2519 31.9829 22.2519 32.7447C22.2519 33.5064 22.8635 34.1234 23.6187 34.1234H46.4856C47.2408 34.1234 47.8524 33.5064 47.8524 32.7447Z" fill="#5FA39A"/>
<path d="M12.3492 20.3414C13.8356 20.2466 15.117 21.3858 15.2093 22.8851C15.2093 22.892 15.211 22.9006 15.211 22.9075C15.3084 23.5262 15.8636 23.964 16.4821 23.9088C17.1023 23.9709 17.6627 23.5297 17.7533 22.9075C17.6183 20.8515 16.1592 19.1281 14.1671 18.6731L13.6579 18.506V16.1845C13.5605 15.5675 13.0019 15.135 12.3868 15.197C11.6743 15.197 11.1156 15.633 11.1156 16.1845V18.506L10.5552 18.6731C8.55114 19.1247 7.0801 20.8532 6.94342 22.9213C6.94342 25.4237 9.3849 27.4504 12.3868 27.4504C13.8732 27.3556 15.1546 28.4948 15.2469 29.9942C15.2469 30.0011 15.2486 30.0097 15.2486 30.0166C15.1666 31.5159 13.8954 32.6654 12.409 32.5844C12.4022 32.5844 12.3936 32.5844 12.3868 32.5827C10.8935 32.6775 9.60701 31.5332 9.51304 30.0269C9.51304 30.0235 9.51304 30.02 9.51304 30.0166C9.42078 29.3944 8.8621 28.955 8.2419 29.0153C7.62171 28.9532 7.06131 29.3944 6.97076 30.0166C7.1399 32.0192 8.55798 33.6874 10.4937 34.1614L11.0541 34.3285V36.4707C11.1515 37.0894 11.7068 37.5272 12.3253 37.472C12.9455 37.5341 13.5059 37.0929 13.5964 36.4707V34.3147L14.1431 34.1476C16.1353 33.6926 17.5944 31.9692 17.7293 29.9132C17.7293 27.4108 15.2879 25.3841 12.286 25.3841C10.7927 25.4788 9.50621 24.3345 9.41224 22.8283C9.41224 22.8248 9.41224 22.8214 9.41224 22.8179C9.5455 21.3168 10.8611 20.2087 12.3492 20.3414Z" fill="#5FA39A"/>
<path d="M2.73364 67.5575V2.75745H35.633V15.8553C35.633 16.6171 36.2447 17.234 36.9998 17.234H50.9551V36.8809H36.2618C36.2139 36.8809 36.1678 36.8826 36.1217 36.8877H78.775C78.7289 36.8826 78.681 36.8809 78.6349 36.8809H53.6904V15.8553C53.6631 15.4813 53.5144 15.128 53.2667 14.8489L37.9703 0.413617C37.702 0.168894 37.3603 0.0241277 36.9998 0H1.36682C0.611652 0 0 0.616979 0 1.37872V68.9362C0 69.6979 0.611652 70.3149 1.36682 70.3149H34.8949V67.5575H2.73364Z" fill="#5FA39A"/>
<path d="M6.94342 52.0468C6.94342 52.8086 7.55507 53.4255 8.31024 53.4255H34.8949V50.6681H8.31024C7.55507 50.6681 6.94342 51.2851 6.94342 52.0468Z" fill="#5FA39A"/>
<path d="M6.94342 42.3958C6.94342 43.1575 7.55507 43.7745 8.31024 43.7745H34.8949V41.017H8.31024C7.55507 41.017 6.94342 41.634 6.94342 42.3958Z" fill="#5FA39A"/>
<path d="M6.94342 61.6979C6.94342 62.4596 7.55507 63.0766 8.31024 63.0766H34.8949V60.3192H8.31024C7.55507 60.3192 6.94342 60.9361 6.94342 61.6979Z" fill="#5FA39A"/>
<path d="M51.0781 48.2553H44.5857C43.8305 48.2553 43.2189 48.8723 43.2189 49.634C43.2189 50.3958 43.8305 51.0128 44.5857 51.0128H51.0781C51.8332 51.0128 52.4449 50.3958 52.4449 49.634C52.4449 48.8723 51.8332 48.2553 51.0781 48.2553Z" fill="#5FA39A"/>
<path d="M70.3092 64.6759H63.8168C63.0617 64.6759 62.45 65.2929 62.45 66.0546C62.45 66.8164 63.0617 67.4333 63.8168 67.4333H70.3092C71.0644 67.4333 71.676 66.8164 71.676 66.0546C71.676 65.2929 71.0644 64.6759 70.3092 64.6759Z" fill="#5FA39A"/>
<path d="M70.3092 69.0464H63.8168C63.0617 69.0464 62.45 69.6634 62.45 70.4252C62.45 71.1869 63.0617 71.8039 63.8168 71.8039H70.3092C71.0644 71.8039 71.676 71.1869 71.676 70.4252C71.676 69.6634 71.0644 69.0464 70.3092 69.0464Z" fill="#5FA39A"/>
<path d="M51.1003 64.9465C51.0969 64.943 51.0952 64.9413 51.0918 64.9379C50.5587 64.4036 49.6976 64.4036 49.1645 64.9379L47.7977 66.3166L46.4309 64.9379C45.8978 64.4036 45.0367 64.4036 44.5037 64.9379C43.9672 65.4738 43.9638 66.3476 44.4951 66.887C44.4986 66.8905 44.5003 66.8922 44.5037 66.8957L45.8705 68.2744L44.5037 69.6531C43.974 70.1908 43.974 71.0594 44.5037 71.5971C44.7583 71.8522 45.1017 71.9952 45.4605 71.9969C45.8244 71.9987 46.1729 71.8556 46.4309 71.5971L47.7977 70.2184L49.1645 71.5971C49.4225 71.8556 49.7711 71.9987 50.135 71.9969C50.4938 71.9952 50.8372 71.8522 51.0918 71.5971C51.6214 71.0594 51.6214 70.1908 51.0918 69.6531L49.7249 68.2744L51.0918 66.8957C51.6282 66.3597 51.6317 65.4859 51.1003 64.9465Z" fill="#5FA39A"/>
<path d="M78.7733 36.8877H36.1216C35.4331 36.9584 34.8949 37.546 34.8949 38.2595V41.017V43.7744V50.668V53.4255V60.3191V63.0765V67.5574V70.3148V79.6212C34.8949 80.383 35.5066 80.9999 36.2617 80.9999H78.6332C79.3883 80.9999 80 80.383 80 79.6212V38.2595C80 37.546 79.4635 36.9584 78.7733 36.8877ZM55.6979 74.7957C55.6979 75.5574 55.0863 76.1744 54.3311 76.1744H41.3873C40.6321 76.1744 40.0205 75.5574 40.0205 74.7957V61.6702C40.0205 60.9085 40.6321 60.2915 41.3873 60.2915H54.3858C55.1409 60.2915 55.7526 60.9085 55.7526 61.6702L55.6979 74.7957ZM55.6979 56.2105C55.6979 56.9722 55.0863 57.5892 54.3311 57.5892H41.3873C40.6321 57.5892 40.0205 56.9722 40.0205 56.2105V43.0851C40.0205 42.3233 40.6321 41.7063 41.3873 41.7063H54.3858C55.1409 41.7063 55.7526 42.3233 55.7526 43.0851L55.6979 56.2105ZM73.5623 76.1744H60.5228C59.7676 76.1744 59.156 75.5574 59.156 74.7957V61.6702C59.156 60.9085 59.7676 60.2915 60.5228 60.2915H73.5213C74.2764 60.2915 74.8881 60.9085 74.8881 61.6702L74.9291 74.7957C74.9291 75.5574 74.3174 76.1744 73.5623 76.1744ZM73.5623 57.5892H60.5228C59.7676 57.5892 59.156 56.9722 59.156 56.2105V43.0851C59.156 42.3233 59.7676 41.7063 60.5228 41.7063H73.5213C74.2764 41.7063 74.8881 42.3233 74.8881 43.0851L74.9291 56.2105C74.9291 56.9722 74.3174 57.5892 73.5623 57.5892Z" fill="#9ED6A7"/>
<path d="M70.3092 48.2553H68.423V46.3665C68.423 45.6047 67.8114 44.9877 67.0562 44.9877C66.301 44.9877 65.6894 45.6047 65.6894 46.3665V48.2553H63.8168C63.0617 48.2553 62.45 48.8723 62.45 49.634C62.45 50.3958 63.0617 51.0128 63.8168 51.0128H65.6894V52.9154C65.6894 53.6771 66.301 54.2941 67.0562 54.2941C67.8114 54.2941 68.423 53.6771 68.423 52.9154V51.0128H70.3092C71.0644 51.0128 71.676 50.3958 71.676 49.634C71.676 48.8723 71.0644 48.2553 70.3092 48.2553Z" fill="#5FA39A"/>
</svg>
