<svg width="85" height="86" viewBox="0 0 85 86" fill="none" xmlns="http://www.w3.org/2000/svg">
<path d="M17.6719 52.25H31.2656V71.5H17.6719V52.25Z" fill="#9ED6A7"/>
<path d="M20.3906 30.25H39.4219V44H20.3906V30.25Z" fill="#9ED6A7"/>
<path d="M0 82.5H84.2812V85.25H0V82.5Z" fill="#5FA39A"/>
<path d="M32.9907 9.5095C35.9541 8.67487 39.0331 8.25 42.1406 8.25C50.4056 8.25 58.2818 11.2461 64.4738 16.7159L61.2317 19.9952L76.6334 23.8893L72.7837 8.3105L70.2471 10.8762C62.5027 3.85275 52.5738 0 42.1406 0C38.3289 0 34.5499 0.515625 30.904 1.53175L29.9062 1.8095V9.68962L32.6889 9.55763L32.9907 9.5095ZM32.625 3.92013C35.7244 3.14325 38.9216 2.75 42.1406 2.75C52.3142 2.75 61.9766 6.66737 69.3458 13.7789L70.3069 14.7056L71.3101 13.6909L72.8978 20.1121L66.5496 18.5061L68.3902 16.6444L67.3761 15.6736C60.5343 9.11213 51.572 5.5 42.1406 5.5C38.9135 5.5 35.7135 5.92487 32.625 6.7595V3.92013Z" fill="#5FA39A"/>
<path d="M1.51434 53.9907L1.78894 55H9.57952L9.44902 52.1853L9.40008 51.8801C8.5763 48.8826 8.15625 45.7682 8.15625 42.625C8.15625 34.2663 11.1183 26.2982 16.5259 20.0337L19.768 23.3145L23.6178 7.73572L8.21606 11.6297L10.7527 14.1955C3.80897 22.0288 0 32.0718 0 42.625C0 46.4805 0.509766 50.303 1.51434 53.9907V53.9907ZM13.6223 15.1071L14.5385 14.135L13.5353 13.1202L19.8836 11.5142L18.2958 17.9355L16.4552 16.0723L15.4955 17.0981C9.00858 24.0212 5.4375 33.0866 5.4375 42.625C5.4375 45.8892 5.85755 49.126 6.68269 52.25H3.87558C3.10753 49.115 2.71875 45.881 2.71875 42.625C2.71875 32.3345 6.59161 22.561 13.6223 15.1071V15.1071Z" fill="#5FA39A"/>
<path d="M74.8309 28.9396L74.8798 29.2449C75.705 32.2424 76.125 35.3567 76.125 38.5C76.125 46.8586 73.1629 54.8268 67.7553 61.0913L64.5132 57.8105L60.6635 73.3893L76.0652 69.4952L73.5286 66.9295C80.4723 59.0961 84.2813 49.0531 84.2813 38.5C84.2813 34.6445 83.7715 30.822 82.7669 27.1342L82.4923 26.125H74.7017L74.8309 28.9396ZM80.4057 28.875C81.1737 32.01 81.5625 35.244 81.5625 38.5C81.5625 48.7905 77.6897 58.564 70.659 66.0179L69.7427 66.99L70.746 68.0048L64.3977 69.6107L65.9854 63.1895L67.826 65.0526L68.7857 64.0269C75.2727 57.1037 78.8438 48.0398 78.8438 38.5C78.8438 35.2357 78.4237 31.999 77.5986 28.875H80.4057Z" fill="#5FA39A"/>
<path d="M23.1094 52.25H25.8281V55H23.1094V52.25Z" fill="#5FA39A"/>
<path d="M28.5469 52.25H31.2656V55H28.5469V52.25Z" fill="#5FA39A"/>
<path d="M17.6719 52.25H20.3906V55H17.6719V52.25Z" fill="#5FA39A"/>
<path d="M17.6719 57.75H20.3906V60.5H17.6719V57.75Z" fill="#5FA39A"/>
<path d="M28.5469 57.75H31.2656V60.5H28.5469V57.75Z" fill="#5FA39A"/>
<path d="M23.1094 57.75H25.8281V60.5H23.1094V57.75Z" fill="#5FA39A"/>
<path d="M17.6719 63.25H20.3906V66H17.6719V63.25Z" fill="#5FA39A"/>
<path d="M28.5469 63.25H31.2656V66H28.5469V63.25Z" fill="#5FA39A"/>
<path d="M23.1094 63.25H25.8281V66H23.1094V63.25Z" fill="#5FA39A"/>
<path d="M23.1094 68.75H25.8281V71.5H23.1094V68.75Z" fill="#5FA39A"/>
<path d="M17.6719 68.75H20.3906V71.5H17.6719V68.75Z" fill="#5FA39A"/>
<path d="M28.5469 68.75H31.2656V71.5H28.5469V68.75Z" fill="#5FA39A"/>
<path d="M25.8281 41.25H28.5469V44H25.8281V41.25Z" fill="#5FA39A"/>
<path d="M20.3906 41.25H23.1094V44H20.3906V41.25Z" fill="#5FA39A"/>
<path d="M31.2656 41.25H33.9844V44H31.2656V41.25Z" fill="#5FA39A"/>
<path d="M36.7031 41.25H39.4219V44H36.7031V41.25Z" fill="#5FA39A"/>
<path d="M36.7031 35.75H39.4219V38.5H36.7031V35.75Z" fill="#5FA39A"/>
<path d="M25.8281 35.75H28.5469V38.5H25.8281V35.75Z" fill="#5FA39A"/>
<path d="M20.3906 35.75H23.1094V38.5H20.3906V35.75Z" fill="#5FA39A"/>
<path d="M31.2656 35.75H33.9844V38.5H31.2656V35.75Z" fill="#5FA39A"/>
<path d="M36.7031 30.25H39.4219V33H36.7031V30.25Z" fill="#5FA39A"/>
<path d="M31.2656 30.25H33.9844V33H31.2656V30.25Z" fill="#5FA39A"/>
<path d="M25.8281 30.25H28.5469V33H25.8281V30.25Z" fill="#5FA39A"/>
<path d="M20.3906 30.25H23.1094V33H20.3906V30.25Z" fill="#5FA39A"/>
<path d="M58.4531 57.75H62.5312C67.7771 57.75 72.0469 53.4311 72.0469 48.125V46.75H65.25C62.5883 46.75 60.1822 47.8638 58.4531 49.6526V44H62.5312C67.7771 44 72.0469 39.6811 72.0469 34.375V33H65.25C62.5489 33 60.1143 34.1495 58.3797 35.9838C57.8197 31.2139 53.8013 27.5 48.9375 27.5H44.8594V24.75H14.9531V46.75H12.2344V74.25H0V77H84.2812V74.25H58.4531V57.75ZM65.25 49.5H69.1908C68.5587 52.6336 65.8141 55 62.5312 55H58.5904C59.2212 51.8664 61.9671 49.5 65.25 49.5ZM65.25 35.75H69.1908C68.5587 38.8836 65.8141 41.25 62.5312 41.25H58.5904C59.2212 38.1164 61.9671 35.75 65.25 35.75ZM55.7344 74.25H44.8594V49.3474C46.5885 51.1362 48.9946 52.25 51.6562 52.25H55.7344V56.375V57.75V74.25ZM44.9967 44H48.9375C52.2204 44 54.9663 46.3664 55.5971 49.5H51.6562C48.3734 49.5 45.6274 47.1336 44.9967 44ZM48.9375 30.25C52.2204 30.25 54.9663 32.6164 55.5971 35.75H51.6562C48.3734 35.75 45.6274 33.3836 44.9967 30.25H48.9375ZM51.6562 38.5H55.7344V42.625V44V44.1526C54.0053 42.3638 51.5992 41.25 48.9375 41.25H44.8594V35.5974C46.5885 37.3862 48.9946 38.5 51.6562 38.5V38.5ZM17.6719 27.5H42.1406V28.875V41.25V42.625V74.25H36.7031V46.75H17.6719V27.5ZM14.9531 49.5H33.9844V74.25H14.9531V49.5Z" fill="#5FA39A"/>
</svg>
