<svg width="83" height="82" viewBox="0 0 83 82" fill="none" xmlns="http://www.w3.org/2000/svg">
<g clip-path="url(#clip0_101_330)">
<path d="M38.7347 16.4012V22.9662L36.1531 27.3831C35.9073 27.8069 35.9073 28.326 36.1531 28.7498L38.9198 33.4843C39.1663 33.9074 39.6242 34.1677 40.118 34.1677H41.5013V38.2676C41.5013 39.023 42.1207 39.6343 42.8846 39.6343C44.4105 39.6343 45.6513 40.8601 45.6513 42.3675C45.6513 43.8743 44.4105 45.1008 42.8846 45.1008C41.3588 45.1008 40.118 43.8743 40.118 42.3675H37.3514C37.3514 44.2 38.2767 45.8155 39.681 46.8072L36.5685 51.9341H27.6682V54.6674H29.0515C30.5773 54.6674 31.8181 55.8932 31.8181 57.4007C31.8181 58.9075 30.5773 60.134 29.0515 60.134H27.6682V62.8673H58.1011V60.134H56.7178C55.192 60.134 53.9512 58.9075 53.9512 57.4007C53.9512 55.8932 55.192 54.6674 56.7178 54.6674H58.1011V51.9341H49.2007L46.0883 46.8072C47.4925 45.8155 48.4179 44.2 48.4179 42.3675C48.4179 39.8251 46.6509 37.681 44.2679 37.0745V34.1677H45.6513C46.145 34.1677 46.603 33.9074 46.8488 33.4843L49.6155 28.7498C49.862 28.326 49.862 27.8069 49.6155 27.3831L47.0346 22.9662V16.4012H56.7178C57.481 16.4012 58.1011 15.79 58.1011 15.0346V9.56796C58.1011 8.8119 57.481 8.20131 56.7178 8.20131H28.0869L15.9856 0.230966C15.5209 -0.0766633 14.9164 -0.0766633 14.4517 0.230966L2.34901 8.20131H1.38515C0.621216 8.20131 0.00183105 8.8119 0.00183105 9.56796V15.0346C0.00183105 15.79 0.621216 16.4012 1.38515 16.4012H2.76846V80.6337C2.76846 81.3891 3.38785 82.0004 4.15178 82.0004H13.835C14.5982 82.0004 15.2183 81.3891 15.2183 80.6337V16.4012H38.7347ZM51.9532 60.134H33.8154C34.2916 59.3259 34.5847 58.401 34.5847 57.4007C34.5847 56.3997 34.2916 55.4748 33.8154 54.6674H51.9552C51.4777 55.4748 51.1845 56.3997 51.1845 57.4007C51.1845 58.401 51.4777 59.3259 51.9532 60.134ZM45.9748 51.9341H39.7945L42.3186 47.7781C42.5071 47.7968 42.6908 47.8341 42.8846 47.8341C43.0778 47.8341 43.2622 47.7968 43.45 47.7781L45.9748 51.9341ZM44.8529 31.4344H40.9157L38.9488 28.0664L40.9157 24.6992H44.8529L46.8198 28.0664L44.8529 31.4344ZM44.2679 21.9659H41.5013V16.4012H44.2679V21.9659ZM55.3345 13.6679H2.76846V10.9346H55.3345V13.6679ZM15.2183 3.01031L23.0988 8.20131H7.33719L15.2183 3.01031ZM12.4517 59.8958L6.27809 54.6674L12.4517 49.4384V59.8958ZM11.8735 63.0061L5.5351 70.1637V57.6383L11.8735 63.0061ZM5.5351 51.6959V41.2385L11.7087 46.4675L5.5351 51.6959ZM6.27809 38.2676L12.4517 33.0386V43.496L6.27809 38.2676ZM5.5351 35.2961V24.8387L11.7087 30.0677L5.5351 35.2961ZM5.5351 79.2671V74.313L12.4517 66.5035V79.2671H5.5351ZM12.4517 27.0962L5.5351 21.2385V16.4012H12.4517V27.0962Z" fill="#5FA39A"/>
<path d="M52.5672 71.0671V73.8004H53.9505C55.4763 73.8004 56.7171 75.0263 56.7171 76.5337C56.7171 78.0405 55.4763 79.267 53.9505 79.267H52.5672V82.0003H83.0001V79.267H81.6168C80.091 79.267 78.8502 78.0405 78.8502 76.5337C78.8502 75.0263 80.091 73.8004 81.6168 73.8004H83.0001V71.0671H52.5672ZM76.8522 79.267H58.7144C59.1906 78.4589 59.4837 77.534 59.4837 76.5337C59.4837 75.5328 59.1906 74.6079 58.7144 73.8004H76.8542C76.3767 74.6079 76.0835 75.5328 76.0835 76.5337C76.0835 77.534 76.3767 78.4589 76.8522 79.267Z" fill="#5FA39A"/>
<path d="M19.3676 66.9672V69.7005H20.7509C22.2768 69.7005 23.5176 70.9263 23.5176 72.4338C23.5176 73.9406 22.2768 75.1671 20.7509 75.1671H19.3676V77.9004H49.8006V75.1671C48.2747 75.1671 47.0339 73.9406 47.0339 72.4338C47.0339 70.9263 48.2747 69.7005 49.8006 69.7005V66.9672H19.3676ZM45.036 75.1671H25.5149C25.9911 74.359 26.2842 73.4341 26.2842 72.4338C26.2842 71.4328 25.9911 70.5079 25.5149 69.7005H45.038C44.5605 70.5079 44.2673 71.4328 44.2673 72.4338C44.2673 73.4341 44.5605 74.359 45.036 75.1671Z" fill="#5FA39A"/>
<path d="M77.4669 0.00134277H80.2335V2.73468H77.4669V0.00134277Z" fill="#5FA39A"/>
<path d="M77.4669 5.46796H80.2335V8.20129H77.4669V5.46796Z" fill="#5FA39A"/>
<path d="M80.2335 2.73462H83.0002V5.46795H80.2335V2.73462Z" fill="#5FA39A"/>
<path d="M74.7003 2.73462H77.4669V5.46795H74.7003V2.73462Z" fill="#5FA39A"/>
<path d="M46.5146 21.8666H39.2521L35.6208 28.0162L39.2521 34.1666H46.5146L50.1458 28.0162L46.5146 21.8666Z" fill="#9ED6A7"/>
</g>
<defs>
<clipPath id="clip0_101_330">
<rect width="83" height="82" fill="white"/>
</clipPath>
</defs>
</svg>
