<svg width="90" height="89" viewBox="0 0 90 89" fill="none" xmlns="http://www.w3.org/2000/svg">
<path d="M53.3981 75.7537L51.3505 67.3101L70.112 58.7342L77.9323 64.3192L53.3981 75.7537Z" fill="#9ED6A7"/>
<path d="M28.8638 18.5811H0V17.1518C0 13.2105 3.23636 10.0052 7.21596 10.0052H28.8638V18.5811Z" fill="#9ED6A7"/>
<path d="M28.8638 30.0156H7.21596C3.23636 30.0156 0 26.8103 0 22.869V21.4397H28.8638V30.0156Z" fill="#9ED6A7"/>
<path d="M34.6366 75.6304V67.3011L31.007 66.9777C30.7869 66.3166 30.5181 65.6734 30.2024 65.0517L32.5368 62.2824L26.589 56.3918L23.7928 58.7037C23.165 58.3911 22.5156 58.1249 21.8481 57.9069L21.5252 54.3157H13.1132L12.7867 57.9105C12.1192 58.1284 11.4698 58.3946 10.842 58.7073L8.04579 56.3954L2.09804 62.286L4.4324 65.0552C4.1167 65.677 3.84791 66.3202 3.62782 66.9813L0 67.3011V75.6304L3.62963 75.9538C3.84971 76.6148 4.11851 77.258 4.43421 77.8798L2.09984 80.6491L8.0476 86.5396L10.8438 84.2277C11.4716 84.5404 12.121 84.8066 12.7885 85.0246L13.1114 88.6157H21.5216L21.8481 85.021C22.5156 84.803 23.165 84.5368 23.7928 84.2242L26.589 86.5361L32.5368 80.6455L30.2024 77.8762C30.5181 77.2545 30.7869 76.6113 31.007 75.9502L34.6366 75.6304ZM17.3183 78.6123C13.3333 78.6123 10.1023 75.4124 10.1023 71.4657C10.1023 67.519 13.3333 64.3192 17.3183 64.3192C21.3033 64.3192 24.5343 67.519 24.5343 71.4657C24.5343 75.4124 21.3033 78.6123 17.3183 78.6123Z" fill="#9ED6A7"/>
<path d="M49.0685 47.1674H46.1822V50.026H43.2958V52.8846H46.1822V55.7432H49.0685V52.8846H51.9549V50.026H49.0685V47.1674Z" fill="#5FA39A"/>
<path d="M89.4779 27.157V12.8638H82.2619V7.48425L86.0395 0H69.8234L73.6028 7.48425V12.8638H69.9136C68.9124 11.1629 67.0705 10.0052 64.9436 10.0052H41.8525C38.6685 10.0052 36.0798 12.569 36.0798 15.7225H15.8751V24.2984H36.0798C36.0798 27.4518 38.6685 30.0156 41.8525 30.0156H42.7762L37.9992 45.1574C36.7887 46.9637 36.0798 49.1291 36.0798 51.4553C36.0798 57.7604 41.259 62.8899 47.6253 62.8899C48.1954 62.8899 48.7528 62.8363 49.3012 62.7559L51.6374 74.3244H49.6205L46.7341 80.0416H43.2957V88.6175H89.4779V80.0416H86.0395L83.1531 74.3244H80.8187V63.5098L59.3873 50.7746L64.6261 30.0156H64.9436C67.0705 30.0156 68.9124 28.8579 69.9136 27.157H73.6028V31.1073L69.8252 38.5915H86.0413L82.2619 31.1073V27.157H89.4779ZM18.7615 21.4397V18.5811H36.0798V21.4397H18.7615ZM38.9662 51.4553C38.9662 46.7261 42.8502 42.8794 47.6253 42.8794C52.4005 42.8794 56.2845 46.7261 56.2845 51.4553C56.2845 56.1846 52.4005 60.0312 47.6253 60.0312C42.8502 60.0312 38.9662 56.1846 38.9662 51.4553ZM58.9165 53.8298L76.2528 64.1316L54.4606 73.7241L52.092 62.0001C55.5322 60.5636 58.1263 57.5228 58.9165 53.8298ZM86.5915 85.7589H46.1821V82.9003H86.5915V85.7589ZM82.8139 80.0416H49.9597L51.4029 77.183H81.3689L82.8139 80.0416ZM60.1991 74.3244L77.9323 66.5185V74.3244H60.1991ZM57.6609 45.8256C55.6747 42.3649 51.9242 40.0208 47.6253 40.0208C45.6734 40.0208 43.8333 40.5068 42.2206 41.359L45.7997 30.0156H61.6531L57.6609 45.8256ZM67.83 24.2984C67.83 25.8742 66.5347 27.157 64.9436 27.157H41.8525C40.2614 27.157 38.9662 25.8742 38.9662 24.2984V15.7225C38.9662 14.1466 40.2614 12.8638 41.8525 12.8638H64.9436C66.5347 12.8638 67.83 14.1466 67.83 15.7225V24.2984ZM81.3707 2.85863L79.9276 5.71726H75.9389L74.4957 2.85863H81.3707ZM76.4892 8.57589H79.3755V12.8638H76.4892V8.57589ZM86.5915 15.7225V18.5811H70.7164V15.7225H86.5915ZM70.7164 21.4397H86.5915V24.2984H70.7164V21.4397ZM74.4939 35.7329L75.9371 32.8742H79.9257L81.3689 35.7329H74.4939ZM79.3755 30.0156H76.4892V27.157H79.3755V30.0156Z" fill="#5FA39A"/>
<path d="M47.6254 15.7224C45.2387 15.7224 43.2958 17.6466 43.2958 20.0104C43.2958 22.3741 45.2387 24.2983 47.6254 24.2983C50.012 24.2983 51.9549 22.3741 51.9549 20.0104C51.9549 17.6466 50.012 15.7224 47.6254 15.7224ZM47.6254 21.4397C46.828 21.4397 46.1822 20.7983 46.1822 20.0104C46.1822 19.2224 46.828 18.581 47.6254 18.581C48.4227 18.581 49.0685 19.2224 49.0685 20.0104C49.0685 20.7983 48.4227 21.4397 47.6254 21.4397Z" fill="#5FA39A"/>
<path d="M59.1708 15.7224C56.7842 15.7224 54.8413 17.6466 54.8413 20.0104C54.8413 22.3741 56.7842 24.2983 59.1708 24.2983C61.5575 24.2983 63.5004 22.3741 63.5004 20.0104C63.5004 17.6466 61.5575 15.7224 59.1708 15.7224ZM59.1708 21.4397C58.3735 21.4397 57.7277 20.7983 57.7277 20.0104C57.7277 19.2224 58.3735 18.581 59.1708 18.581C59.9682 18.581 60.614 19.2224 60.614 20.0104C60.614 20.7983 59.9682 21.4397 59.1708 21.4397Z" fill="#5FA39A"/>
<path d="M17.3183 62.8899C12.5431 62.8899 8.65915 66.7365 8.65915 71.4658C8.65915 76.195 12.5431 80.0417 17.3183 80.0417C22.0935 80.0417 25.9775 76.195 25.9775 71.4658C25.9775 66.7365 22.0935 62.8899 17.3183 62.8899ZM17.3183 77.183C14.1343 77.183 11.5455 74.6192 11.5455 71.4658C11.5455 68.3124 14.1343 65.7485 17.3183 65.7485C20.5023 65.7485 23.0911 68.3124 23.0911 71.4658C23.0911 74.6192 20.5023 77.183 17.3183 77.183Z" fill="#5FA39A"/>
<path d="M18.7615 32.8743H15.8751V35.7329H18.7615V32.8743Z" fill="#5FA39A"/>
<path d="M18.7615 38.5915H15.8751V41.4501H18.7615V38.5915Z" fill="#5FA39A"/>
<path d="M18.7615 44.3088H15.8751V47.1674H18.7615V44.3088Z" fill="#5FA39A"/>
</svg>
