<svg width="85" height="85" viewBox="0 0 85 85" fill="none" xmlns="http://www.w3.org/2000/svg">
<path d="M32.6254 39.4171H51.6567V46.2921H32.6254V39.4171Z" fill="#9ED6A7"/>
<path d="M42.1411 25.6671C37.6429 25.6671 33.9848 21.967 33.9848 17.4171C33.9848 12.8672 37.6429 9.16711 42.1411 9.16711C46.6392 9.16711 50.2973 12.8672 50.2973 17.4171C50.2973 21.967 46.6392 25.6671 42.1411 25.6671Z" fill="#9ED6A7"/>
<path d="M12.2348 46.2921C9.9864 46.2921 8.15668 44.4414 8.15668 42.1671C8.15668 39.8929 9.9864 38.0421 12.2348 38.0421C14.4832 38.0421 16.3129 39.8929 16.3129 42.1671C16.3129 44.4414 14.4832 46.2921 12.2348 46.2921Z" fill="#9ED6A7"/>
<path d="M77.1858 31.1671C73.7588 20.0131 65.1023 10.9629 54.2042 7.11425L55.2047 4.57187L51.1062 5.401C48.4866 5.929 45.7557 4.87575 44.1516 2.71287L42.1411 0L40.1306 2.71287C38.5265 4.87575 35.7969 5.929 33.176 5.401L29.0775 4.57187L30.078 7.11287C19.1486 10.9532 10.6811 19.7326 7.16981 30.9127C3.41929 32.659 0.63937 36.2862 0.102417 40.5474C-0.505224 45.3709 1.6222 49.9867 5.6541 52.5937C6.35962 53.0502 6.79734 53.9275 6.79734 54.8859V57.2921C6.79734 60.1012 8.89893 62.3989 11.5905 62.7261C14.263 66.7769 17.7512 70.3134 21.7505 73.0249V82.0421H5.43796V84.7921H78.8442V82.0421H59.813V74.6941C65.4544 71.5522 70.1632 66.9845 73.5073 61.4171H81.563V58.6671H78.8442V55.9171H84.2817V31.1671H77.1858ZM81.563 42.1671H76.1255V33.9171H81.563V42.1671ZM67.9692 53.1671V44.9171H73.4067V53.1671H67.9692ZM59.813 44.9171H65.2505V53.1671H59.813V44.9171ZM59.813 42.1671V33.9171H65.2505V42.1671H59.813ZM67.9692 42.1671V33.9171H73.4067V42.1671H67.9692ZM33.1842 8.19087C36.5622 8.67212 40.0082 7.293 42.1411 4.57737C44.2739 7.293 47.7213 8.6735 51.0994 8.19087C50.5352 11.6586 51.8538 15.1814 54.6025 17.4034C51.8565 19.547 50.47 23.0065 50.9131 26.4357C47.5256 26.0562 44.2114 27.4945 42.1397 30.2541C40.2883 27.8987 37.4512 26.5485 34.5218 26.5485C34.0759 26.5485 33.6287 26.5787 33.1828 26.6434C33.7483 23.1687 32.4243 19.6391 29.6634 17.4171C32.4243 15.1951 33.7483 11.6655 33.1842 8.19087V8.19087ZM7.11951 50.2769C3.98071 48.2487 2.32635 44.6545 2.80078 40.8952C3.34317 36.5819 6.84356 33.0949 11.1201 32.6054C11.4981 32.5627 11.8732 32.5421 12.2457 32.5421C14.5906 32.5421 16.8051 33.3905 18.5709 34.9869C20.5923 36.8115 21.7505 39.4295 21.7505 42.1671C21.7505 45.4534 20.1138 48.4797 17.3733 50.2617C15.9364 51.1954 15.0583 52.7821 14.9699 54.5421H13.5942V46.0391C13.1674 46.1931 12.7133 46.2921 12.2348 46.2921C11.7563 46.2921 11.3023 46.1931 10.8755 46.0391V54.5421H9.4957C9.3951 52.767 8.52918 51.1885 7.11951 50.2769V50.2769ZM9.51609 57.2921H14.9536C14.9536 58.8087 13.7342 60.0421 12.2348 60.0421C10.7354 60.0421 9.51609 58.8087 9.51609 57.2921ZM48.938 60.0421V66.3396L43.5005 65.2396V82.0421H38.063V62.4896L35.3442 63.0396V60.0421H48.938ZM35.3442 65.8446V82.0421H24.4692V68.0446L35.3442 65.8446ZM46.2192 82.0421V68.5946L57.0942 70.7946V82.0421H46.2192ZM59.813 71.5247V68.5396L51.6567 66.8896V57.2921H48.938V54.5421H46.2192V57.2921H43.5005V51.7921H40.7817V57.2921H38.063V54.5421H35.3442V57.2921H32.6255V63.5896L21.7505 65.7896V69.652C19.01 67.5647 16.5631 65.0567 14.5566 62.2449C16.3918 61.3607 17.6723 59.4811 17.6723 57.2921V54.8281C17.6723 53.9082 18.1209 53.0447 18.8441 52.5745C22.3663 50.2851 24.4692 46.3939 24.4692 42.1671C24.4692 38.6471 22.9793 35.2825 20.3829 32.9367C17.7879 30.591 14.2943 29.4717 10.8143 29.8732C10.6661 29.8897 10.522 29.9214 10.3752 29.9434C13.8865 20.5824 21.2353 13.2577 30.5728 9.84637C30.547 12.2334 29.3358 14.5104 27.1934 15.8097L24.5467 17.4171L27.1948 19.0245C30.1487 20.8175 31.3653 24.4667 30.0834 27.7049L29.0775 30.2624L33.176 29.4332C35.7969 28.9066 38.5265 29.9585 40.1306 32.1214L42.1411 34.8342L44.278 31.9536C45.8413 29.8444 48.4092 28.7966 50.9852 29.2201L54.805 29.8499L53.9894 27.6334C52.8176 24.4461 54.0587 20.8642 56.9392 19.1152L59.7368 17.4171L57.0888 15.8097C54.9478 14.5104 53.7379 12.2347 53.7107 9.84912C63.3501 13.3925 71.0468 21.3469 74.3379 31.1671H57.0942V55.9171H62.5317V58.6671H59.813V61.4171H70.3019C67.5628 65.5132 63.9876 68.9507 59.813 71.5247V71.5247ZM76.1255 58.6671H65.2505V55.9171H76.1255V58.6671ZM76.1255 53.1671V44.9171H81.563V53.1671H76.1255Z" fill="#5FA39A"/>
<path d="M81.5629 82.0421H84.2817V84.7921H81.5629V82.0421Z" fill="#5FA39A"/>
<path d="M0.000427246 82.0421H2.71918V84.7921H0.000427246V82.0421Z" fill="#5FA39A"/>
<path d="M48.9379 76.5421H54.3754V79.2921H48.9379V76.5421Z" fill="#5FA39A"/>
<path d="M27.1879 71.0421H32.6254V73.7921H27.1879V71.0421Z" fill="#5FA39A"/>
<path d="M27.1879 76.5421H32.6254V79.2921H27.1879V76.5421Z" fill="#5FA39A"/>
<path d="M32.6254 38.0421H51.6567V40.7921H32.6254V38.0421Z" fill="#5FA39A"/>
<path d="M38.0629 43.5421H40.7817V46.2921H38.0629V43.5421Z" fill="#5FA39A"/>
<path d="M32.6254 43.5421H35.3442V46.2921H32.6254V43.5421Z" fill="#5FA39A"/>
<path d="M48.9379 43.5421H51.6567V46.2921H48.9379V43.5421Z" fill="#5FA39A"/>
<path d="M43.5004 43.5421H46.2192V46.2921H43.5004V43.5421Z" fill="#5FA39A"/>
</svg>
