<svg width="88" height="88" viewBox="0 0 88 88" fill="none" xmlns="http://www.w3.org/2000/svg">
<path d="M5.67746 22.7097H9.93553H10.1569C10.6963 21.0661 12.2249 19.871 14.0488 19.871H15.6129L17.231 17.4439C17.9946 16.2999 19.2777 15.6129 20.6531 15.6129C21.9475 15.6129 23.1668 16.2218 23.9431 17.2579C25.8479 19.7972 28.8357 21.2903 32.0079 21.2903H32.6452V22.7097H36.9033C37.999 22.7097 38.9869 23.1355 39.742 23.8154V18.4516C39.742 8.27768 31.4643 0 21.2904 0C11.1164 0 2.83875 8.27768 2.83875 18.4516V23.8154C3.59385 23.1355 4.58172 22.7097 5.67746 22.7097V22.7097Z" fill="#9ED6A7"/>
<path d="M24.4527 68.2582C24.9239 67.3427 25.8678 66.7097 26.9678 66.7097H29.8065H29.8079H41.1613H44C45.1 66.7097 46.0439 67.3427 46.5151 68.2582L46.7167 67.9601C47.7258 66.4669 48.2581 64.7254 48.2581 62.9242C48.2581 59.7449 46.5946 56.953 44.0965 55.3534L26.8727 55.352C24.3732 56.9516 22.7097 59.7449 22.7097 62.9242C22.7097 64.7254 23.2419 66.4655 24.2511 67.9587L24.4527 68.2582Z" fill="#9ED6A7"/>
<path d="M51.0968 66.7097V76.6452C51.0968 79.8742 53.3024 82.6476 56.347 83.4737C57.0808 82.4191 58.1708 81.62 59.4866 81.2907L61.0322 80.9032L61.7561 78.0063L61.7618 77.995C59.7406 77.6643 58.1935 75.9213 58.1935 73.8065L58.195 66.7097C59.9337 66.7097 61.5233 65.7275 62.3012 64.1719L62.4516 63.871L63.3855 65.7403C64.5537 68.0737 66.9382 69.5484 69.5484 69.5484L69.5498 73.8065C69.5498 75.927 67.9956 77.6714 65.9673 77.9964L66 78.0645L66.7097 80.9032L68.2568 81.2893C69.5725 81.6186 70.6626 82.4191 71.3964 83.4723C74.4409 82.649 76.6452 79.8785 76.6452 76.6452V66.7097C76.6452 61.7661 73.8164 57.4768 69.696 55.3549H58.0459C53.9255 57.4768 51.0968 61.7661 51.0968 66.7097V66.7097Z" fill="#9ED6A7"/>
<path d="M22.7096 28.0521V25.5484H19.8709V28.3871C19.8709 28.6071 19.922 28.8257 20.0199 29.0216L20.8049 30.5899L19.2365 31.3749L20.5068 33.9141L22.0752 33.1292C22.7536 32.7899 23.2589 32.2066 23.4988 31.487C23.7387 30.7674 23.6833 29.9981 23.3455 29.3196L22.7096 28.0521Z" fill="#5FA39A"/>
<path d="M15.6129 26.9677C16.3968 26.9677 17.0323 26.3323 17.0323 25.5484C17.0323 24.7645 16.3968 24.129 15.6129 24.129C14.829 24.129 14.1935 24.7645 14.1935 25.5484C14.1935 26.3323 14.829 26.9677 15.6129 26.9677Z" fill="#5FA39A"/>
<path d="M26.9677 26.9677C27.7516 26.9677 28.3871 26.3323 28.3871 25.5484C28.3871 24.7645 27.7516 24.129 26.9677 24.129C26.1838 24.129 25.5483 24.7645 25.5483 25.5484C25.5483 26.3323 26.1838 26.9677 26.9677 26.9677Z" fill="#5FA39A"/>
<path d="M78.0645 53.9355H53.3933L51.4317 50.011C50.891 48.9294 49.8023 48.2581 48.593 48.2581C46.843 48.2581 45.4194 49.6817 45.4194 51.4317V53.9355H34.9474C32.3074 48.2496 27.7456 46.3178 25.5484 45.7018V43.4592L28.573 41.9462C31.961 40.2529 34.0659 36.8479 34.0659 33.0582V32.6452H36.9032C40.0343 32.6452 42.5807 30.0988 42.5807 26.9677C42.5807 23.8367 40.0343 21.2903 36.9032 21.2903H34.0645V20.4103V18.4573C34.0659 15.0438 32.7374 11.8346 30.3245 9.42169C27.913 7.00736 24.7039 5.67743 21.2903 5.67743C14.2475 5.67743 8.51614 11.4088 8.51614 18.4516V21.2903H5.67743C2.54633 21.2903 7.62939e-06 23.8367 7.62939e-06 26.9677C7.62939e-06 29.0599 1.14968 30.871 2.83872 31.856V35.4839C2.83872 40.1805 6.65962 44 11.3548 44H17.0323V45.7188C13.8529 46.6542 5.67743 50.3715 5.67743 63.871V65.2903H17.0323V83.7419C17.0323 86.0895 18.9427 88 21.2903 88H78.0645C80.4121 88 82.3226 86.0895 82.3226 83.7419V58.1936C82.3226 55.8459 80.4121 53.9355 78.0645 53.9355V53.9355ZM27.3027 39.4056L24.2781 40.9186C23.584 41.2663 23.0887 41.8696 22.8587 42.5807H22.7097L22.7111 43.4436C22.7111 43.4479 22.7097 43.4536 22.7097 43.4578V46.4101L21.2903 48.5377L19.871 46.4086V43.7417C20.4614 43.533 21.0065 43.208 21.4621 42.7524C22.2668 41.949 22.7097 40.8788 22.7097 39.7419C22.7097 37.3943 20.7992 35.4839 18.4516 35.4839H15.6129C14.371 35.4839 13.261 36.0275 12.4818 36.8791C11.7579 35.7479 11.3534 34.425 11.3534 33.0568V23.9843C11.3548 22.4996 12.5641 21.2903 14.0488 21.2903H16.3723L18.4119 18.2316C18.9129 17.4808 19.7503 17.0323 20.653 17.0323C21.4961 17.0323 22.3023 17.4354 22.809 18.1096C24.8117 20.7808 27.9145 22.4542 31.2258 22.6827V22.7097L31.2272 33.0582C31.2272 35.7635 29.7241 38.1963 27.3027 39.4056V39.4056ZM36.9032 24.129C38.4688 24.129 39.7419 25.4022 39.7419 26.9677C39.7419 28.5333 38.4688 29.8065 36.9032 29.8065H34.0659V24.129H36.9032ZM21.2903 8.51614C23.9459 8.51614 26.4412 9.55085 28.3176 11.4272C30.1939 13.3036 31.2272 15.8003 31.2258 18.4545V19.8241C28.8044 19.6013 26.5476 18.365 25.0786 16.4063C24.0396 15.021 22.3847 14.1936 20.653 14.1936C18.7994 14.1936 17.0777 15.1147 16.0501 16.6576L14.8536 18.4516H14.0488C13.0666 18.4516 12.1554 18.7312 11.3548 19.1826V18.4516C11.3548 12.9729 15.8116 8.51614 21.2903 8.51614ZM5.67743 24.129H8.51614V29.8065H5.67743C4.11188 29.8065 2.83872 28.5333 2.83872 26.9677C2.83872 25.4022 4.11188 24.129 5.67743 24.129ZM5.67743 35.4839V32.6452H8.51472V33.0582C8.51472 35.6613 9.54801 38.148 11.3548 39.996V41.1613C8.22517 41.1613 5.67743 38.615 5.67743 35.4839V35.4839ZM14.1936 39.7419C14.1936 38.9599 14.8308 38.3226 15.6129 38.3226H18.4516C19.2337 38.3226 19.871 38.9599 19.871 39.7419C19.871 40.1209 19.7234 40.4772 19.4565 40.7454C19.1883 41.0137 18.832 41.1613 18.4516 41.1613H14.1936V39.7419ZM8.5502 62.4516C9.07536 51.7511 15.4965 49.0572 17.8058 48.4298L21.2903 53.6559L24.7748 48.4312C26.2822 48.8457 29.5155 50.1486 31.7439 53.9355H21.2917C18.9441 53.9355 17.0337 55.8459 17.0337 58.1936V62.4516H8.5502ZM39.7419 68.129V73.8065C39.7419 74.5644 39.4467 75.2769 38.9116 75.8134C38.3751 76.3499 37.6626 76.6452 36.9032 76.6452H34.0645C33.3052 76.6452 32.5927 76.3499 32.0561 75.8134C31.521 75.2783 31.2258 74.5644 31.2258 73.8065V68.129H39.7419ZM42.5807 68.129H44C44.7821 68.129 45.4194 68.7663 45.4194 69.5484C45.4194 70.3305 44.7821 70.9677 44 70.9677H42.5807V68.129ZM36.5044 79.4839L36.7499 80.4675L35.4839 81.735L34.2178 80.4689L34.4634 79.4839H36.5044ZM38.7569 82.4759L39.5234 82.6675C40.8405 82.9968 41.8596 83.9492 42.3152 85.1613H36.0701L38.7569 82.4759ZM32.2108 82.4759L34.8963 85.1613H28.6511C29.1067 83.9492 30.1272 82.9968 31.443 82.6675L32.2108 82.4759ZM64.8915 79.4839L65.137 80.4675L63.871 81.735L62.6049 80.4689L62.8505 79.4839H64.8915ZM67.144 82.4759L67.9105 82.6675C69.2276 82.9968 70.2467 83.9492 70.7023 85.1613H64.4572L67.144 82.4759ZM67.2987 75.8148C66.7622 76.3499 66.0497 76.6452 65.2903 76.6452H62.4516C61.6923 76.6452 60.9797 76.3499 60.4432 75.8134C59.9081 75.2783 59.6129 74.5644 59.6129 73.8065V67.9616C60.5894 67.7259 61.485 67.2519 62.2231 66.5834C63.4466 68.8699 65.6225 70.4199 68.1276 70.8471L68.129 73.8065C68.129 74.5658 67.8338 75.2783 67.2987 75.8148V75.8148ZM60.5979 82.4759L63.2834 85.1613H57.0382C57.4938 83.9492 58.5143 82.9968 59.8301 82.6675L60.5979 82.4759ZM79.4839 83.7419C79.4839 84.524 78.8466 85.1613 78.0645 85.1613H73.6418C73.1081 82.6292 71.1934 80.5612 68.6003 79.9125L67.8807 79.7323L67.6819 78.9388C68.2752 78.6621 68.8288 78.2973 69.3057 77.8204C70.3787 76.7488 70.9692 75.3223 70.9677 73.8065V68.129H69.5484C67.4634 68.129 65.587 66.9708 64.6559 65.1058L62.4516 60.6973L61.0323 63.5374C60.4915 64.619 59.4043 65.2903 58.195 65.2903H56.7756V73.8065C56.7756 75.3223 57.3661 76.7488 58.4377 77.8218C58.9146 78.2987 59.4681 78.6621 60.0614 78.9388L59.8627 79.7337L59.1431 79.9139C56.5499 80.5626 54.6352 82.6306 54.1016 85.1627H45.2576C44.7239 82.6306 42.8092 80.5626 40.216 79.9139L39.4964 79.7337L39.2977 78.9403C39.891 78.6635 40.4459 78.2987 40.9214 77.8218C41.9916 76.7488 42.5821 75.3223 42.5807 73.8065H44C46.3476 73.8065 48.2581 71.896 48.2581 69.5484C48.2581 67.2008 46.3476 65.2903 44 65.2903H42.5807V62.4516H39.7419V65.2903H36.9032V62.4516H34.0645V65.2903H31.2258V62.4516H28.3871V65.2903H26.9677C24.6201 65.2903 22.7097 67.2008 22.7097 69.5484C22.7097 71.896 24.6201 73.8065 26.9677 73.8065H28.3871C28.3871 75.3223 28.9776 76.7488 30.0492 77.8218C30.5261 78.2987 31.0796 78.6621 31.6729 78.9388L31.4742 79.7337L30.7546 79.9139C28.1614 80.5626 26.2467 82.6306 25.713 85.1627H21.2903C20.5083 85.1627 19.871 84.5254 19.871 83.7434V58.1921C19.871 57.4101 20.5083 56.7728 21.2903 56.7728L48.2581 56.7742V51.4317C48.2581 51.1209 48.7548 51.0045 48.8925 51.2827L51.639 56.7742H78.0645C78.8466 56.7742 79.4839 57.4115 79.4839 58.1936V83.7419ZM28.3885 70.9677H26.9677C26.1857 70.9677 25.5484 70.3305 25.5484 69.5484C25.5484 68.7663 26.1857 68.129 26.9677 68.129H28.3885V70.9677Z" fill="#5FA39A"/>
<path d="M85.8838 12.4648C85.5928 11.5124 85.211 10.5926 84.7454 9.71406L85.7433 7.71845L80.2816 2.25677L78.286 3.25458C77.4088 2.78761 76.4876 2.40723 75.5353 2.11626L74.8298 0H67.1071L66.4017 2.11626C65.4493 2.40723 64.5296 2.78903 63.651 3.25458L61.6554 2.25677L56.1937 7.71845L57.1915 9.71406C56.7245 10.5912 56.3442 11.5124 56.0532 12.4648L53.9355 13.1702V20.8929L56.0518 21.5983C56.3427 22.5507 56.7245 23.4705 57.1901 24.349L56.1923 26.3446L61.654 31.8063L63.6496 30.8085C64.5267 31.2755 65.4479 31.6559 66.4003 31.9468L67.1057 34.0645H74.8284L75.5338 31.9483C76.4862 31.6573 77.406 31.2755 78.2845 30.8099L80.2802 31.8077L85.7418 26.3461L84.744 24.3505C85.211 23.4733 85.5914 22.5521 85.8823 21.5997L88 20.8943V13.1702L85.8838 12.4648ZM85.1613 18.8476L83.5319 19.3898L83.3431 20.1449C83.038 21.357 82.5596 22.5124 81.9209 23.5783L81.5207 24.2468L82.2885 25.784L79.7195 28.353L78.1824 27.5852L77.5138 27.9854C76.4479 28.6255 75.2911 29.1039 74.0804 29.4076L73.3253 29.5964L72.7831 31.2258H69.151L68.6088 29.5964L67.8537 29.4076C66.6416 29.1025 65.4862 28.6241 64.4203 27.9854L63.7518 27.5852L62.2146 28.353L59.6456 25.784L60.4134 24.2468L60.0132 23.5783C59.3731 22.5124 58.8947 21.3556 58.591 20.1449L58.4022 19.3898L56.7742 18.8476V15.2155L58.4036 14.6733L58.5924 13.9182C58.8976 12.7061 59.3759 11.5507 60.0146 10.4848L60.4149 9.81626L59.647 8.2791L62.216 5.71006L63.7532 6.47794L64.4217 6.07768C65.4876 5.43755 66.6444 4.95923 67.8551 4.65548L68.6102 4.46671L69.1524 2.83871H72.7845L73.3267 4.46813L74.0818 4.6569C75.294 4.96206 76.4493 5.44039 77.5153 6.0791L78.1838 6.47935L79.7209 5.71148L82.29 8.28052L81.5221 9.81768L81.9223 10.4862C82.5625 11.5521 83.0408 12.7089 83.3445 13.9196L83.5333 14.6747L85.1613 15.2169V18.8476Z" fill="#5FA39A"/>
<path d="M70.9678 7.0968C65.4891 7.0968 61.0323 11.5536 61.0323 17.0323C61.0323 22.511 65.4891 26.9678 70.9678 26.9678C76.4465 26.9678 80.9033 22.511 80.9033 17.0323C80.9033 11.5536 76.4465 7.0968 70.9678 7.0968ZM70.9678 24.1291C67.0546 24.1291 63.871 20.9454 63.871 17.0323C63.871 13.1191 67.0546 9.93551 70.9678 9.93551C74.8809 9.93551 78.0645 13.1191 78.0645 17.0323C78.0645 20.9454 74.8809 24.1291 70.9678 24.1291Z" fill="#5FA39A"/>
<path d="M70.9677 12.7742C68.6201 12.7742 66.7097 14.6846 66.7097 17.0322C66.7097 19.3798 68.6201 21.2903 70.9677 21.2903C73.3154 21.2903 75.2258 19.3798 75.2258 17.0322C75.2258 14.6846 73.3154 12.7742 70.9677 12.7742ZM70.9677 18.4516C70.1857 18.4516 69.5484 17.8143 69.5484 17.0322C69.5484 16.2502 70.1857 15.6129 70.9677 15.6129C71.7498 15.6129 72.3871 16.2502 72.3871 17.0322C72.3871 17.8143 71.7498 18.4516 70.9677 18.4516Z" fill="#5FA39A"/>
<path d="M75.2258 41.1613C75.2258 38.8136 73.3154 36.9032 70.9677 36.9032C68.6201 36.9032 66.7097 38.8136 66.7097 41.1613C66.7097 43.5089 68.6201 45.4193 70.9677 45.4193C73.3154 45.4193 75.2258 43.5089 75.2258 41.1613ZM69.5484 41.1613C69.5484 40.3792 70.1857 39.7419 70.9677 39.7419C71.7498 39.7419 72.3871 40.3792 72.3871 41.1613C72.3871 41.9433 71.7498 42.5806 70.9677 42.5806C70.1857 42.5806 69.5484 41.9433 69.5484 41.1613Z" fill="#5FA39A"/>
<path d="M82.3225 36.9032C79.9749 36.9032 78.0645 38.8136 78.0645 41.1613C78.0645 43.5089 79.9749 45.4193 82.3225 45.4193C84.6701 45.4193 86.5806 43.5089 86.5806 41.1613C86.5806 38.8136 84.6701 36.9032 82.3225 36.9032ZM82.3225 42.5806C81.5405 42.5806 80.9032 41.9433 80.9032 41.1613C80.9032 40.3792 81.5405 39.7419 82.3225 39.7419C83.1046 39.7419 83.7419 40.3792 83.7419 41.1613C83.7419 41.9433 83.1046 42.5806 82.3225 42.5806Z" fill="#5FA39A"/>
<path d="M63.871 41.1613C63.871 38.8136 61.9606 36.9032 59.613 36.9032C57.2653 36.9032 55.3549 38.8136 55.3549 41.1613C55.3549 43.5089 57.2653 45.4193 59.613 45.4193C61.9606 45.4193 63.871 43.5089 63.871 41.1613ZM58.1936 41.1613C58.1936 40.3792 58.8309 39.7419 59.613 39.7419C60.395 39.7419 61.0323 40.3792 61.0323 41.1613C61.0323 41.9433 60.395 42.5806 59.613 42.5806C58.8309 42.5806 58.1936 41.9433 58.1936 41.1613Z" fill="#5FA39A"/>
</svg>
