<svg width="88" height="88" viewBox="0 0 88 88" fill="none" xmlns="http://www.w3.org/2000/svg">
<path d="M86.5492 18.7523H69.2394V7.21228H76.4517H79.3369H86.5492V18.7523Z" fill="#9ED6A7"/>
<path d="M30.2923 80.7795H0V73.5666H12.6215H17.6702H30.2923V80.7795Z" fill="#9ED6A7"/>
<path d="M56.5501 78.1916C51.5968 78.1916 46.6347 76.3856 42.7441 72.7391C38.8091 69.0493 36.546 64.0497 36.3728 58.6575C36.1984 53.2652 38.1355 48.1287 41.8241 44.1937C49.439 36.0708 62.2437 35.657 70.3695 43.2731C74.3046 46.963 76.5676 51.9625 76.7409 57.3548C76.9141 62.747 74.9782 67.8835 71.2895 71.8174C67.3194 76.052 61.9388 78.1916 56.5501 78.1916V78.1916ZM56.56 44.7169C53.0101 44.7169 49.4701 46.1249 46.8565 48.9117C44.4272 51.5025 43.152 54.8834 43.2673 58.4333C43.3826 61.9821 44.8714 65.2752 47.4622 67.7044C52.8111 72.7198 61.2424 72.4459 66.2548 67.0987C68.6841 64.5079 69.9575 61.1271 69.844 57.5771C69.7287 54.0284 68.2399 50.7353 65.6491 48.306C63.0888 45.9055 59.8197 44.7169 56.56 44.7169V44.7169Z" fill="#9ED6A7"/>
<path d="M56.5501 78.1916C51.5968 78.1916 46.6347 76.3856 42.7441 72.7391C38.8091 69.0493 36.546 64.0497 36.3728 58.6575C36.1984 53.2652 38.1355 48.1287 41.8241 44.1937C49.439 36.0708 62.2437 35.657 70.3695 43.2731C74.3046 46.963 76.5676 51.9625 76.7409 57.3548C76.9141 62.747 74.9782 67.8835 71.2895 71.8174C67.3194 76.052 61.9388 78.1916 56.5501 78.1916V78.1916ZM56.56 44.7169C53.0101 44.7169 49.4701 46.1249 46.8565 48.9117C44.4272 51.5025 43.152 54.8834 43.2673 58.4333C43.3826 61.9821 44.8714 65.2752 47.4622 67.7044C52.8111 72.7198 61.2424 72.4459 66.2548 67.0987C68.6841 64.5079 69.9575 61.1271 69.844 57.5771C69.7287 54.0284 68.2399 50.7353 65.6491 48.306C63.0888 45.9055 59.8197 44.7169 56.56 44.7169V44.7169Z" fill="#9ED6A7"/>
<path d="M86.8102 78.4615L74.6224 67.0367C74.184 67.9122 73.6614 68.7491 73.0949 69.5585L84.8368 80.5659C84.8468 80.5759 85.8668 81.5772 83.9163 83.6588C82.1003 85.5977 81.0528 84.9083 80.8913 84.7766L69.1464 73.7645C68.3687 74.386 67.5581 74.949 66.7142 75.4394L78.9179 86.8799C79.4516 87.3803 80.4137 87.8882 81.6228 87.8882C82.8881 87.8871 84.4243 87.3317 86.0196 85.6293C89.1429 82.3011 87.9023 79.4856 86.8102 78.4615V78.4615Z" fill="#5FA39A"/>
<path d="M56.2569 36.0621C56.2569 36.6566 56.2107 37.2477 56.1458 37.8347C57.1067 37.8142 58.0659 37.8751 59.0204 37.9921C59.0865 37.3519 59.1415 36.7081 59.1415 36.0621C59.1415 25.7223 50.7289 17.3098 40.3892 17.3098C38.9496 17.3098 37.5228 17.473 36.134 17.7943L31.8976 9.99329C34.6294 9.10493 37.4789 8.65489 40.3898 8.65489C46.5276 8.65489 52.182 10.7073 56.7561 14.1308L56.4518 14.558C56.1563 14.4802 55.8531 14.4252 55.5359 14.4252C53.5479 14.4252 51.9298 16.0439 51.9298 18.0313C51.9298 20.0188 53.5485 21.6375 55.5359 21.6375C57.5234 21.6375 59.1421 20.0188 59.1421 18.0313C59.1421 17.4239 58.9765 16.8603 58.7108 16.3564L58.9788 15.9801C64.3869 20.9914 67.797 28.1276 67.797 36.0626C67.797 37.7083 67.6442 39.3457 67.3539 40.9539C68.2394 41.5152 69.0862 42.1613 69.8973 42.8752C70.4094 40.6496 70.6821 38.3643 70.6821 36.0626C70.6821 27.1608 66.7992 19.1684 60.6654 13.6217L64.2125 8.65547H86.5493V5.77032H62.7266L58.4293 11.7852C53.3835 8.0246 47.152 5.77032 40.3898 5.77032C36.5642 5.77032 32.8328 6.47435 29.3016 7.86484L27.7841 8.46177L34.6997 21.1991L35.8221 20.8632C37.2981 20.419 38.8343 20.1955 40.3904 20.1955C49.1383 20.1949 56.2569 27.3136 56.2569 36.0621V36.0621ZM55.5359 18.7523C55.138 18.7523 54.815 18.4293 54.815 18.0313C54.815 17.6334 55.138 17.3103 55.5359 17.3103C55.9339 17.3103 56.2569 17.6334 56.2569 18.0313C56.2569 18.4293 55.9339 18.7523 55.5359 18.7523Z" fill="#5FA39A"/>
<path d="M22.0195 56.374L22.4725 55.9959C22.8851 56.1604 23.331 56.2569 23.801 56.2569C25.789 56.2569 27.4071 54.64 27.4071 52.6508C27.4071 50.6616 25.7884 49.0446 23.801 49.0446C21.8135 49.0446 20.1948 50.6616 20.1948 52.6508C20.1948 53.1038 20.2885 53.5333 20.4412 53.933L19.9841 54.314C16.8696 50.8448 14.6095 46.582 13.5912 41.8324H22.5416C24.6174 48.2675 30.0313 53.1008 36.6823 54.4369C36.8509 53.4836 37.1007 52.5531 37.4033 51.6401C31.3937 50.496 26.5527 45.9781 25.0223 40.0293L24.7426 38.9472H10.1869L10.4362 40.6046C11.3322 46.5551 13.9657 51.8976 17.7685 56.1604L11.54 61.3507V70.6821H14.4251V62.7037L19.7869 58.235C24.6969 62.7845 31.1005 65.72 38.1108 66.2467C37.6807 65.2846 37.3436 64.2821 37.0691 63.258C31.3451 62.561 26.1261 60.0808 22.0195 56.374V56.374ZM23.801 51.9298C24.1989 51.9298 24.522 52.2546 24.522 52.6508C24.522 53.047 24.1989 53.3718 23.801 53.3718C23.403 53.3718 23.08 53.047 23.08 52.6508C23.08 52.2546 23.403 51.9298 23.801 51.9298Z" fill="#5FA39A"/>
<path d="M71.3844 57.528C71.2574 53.5672 69.5942 49.8932 66.7038 47.1824C63.8116 44.4723 60.0322 43.0408 56.0767 43.1766C52.1159 43.3036 48.4419 44.9668 45.7311 47.8589C43.021 50.7499 41.5983 54.5235 41.7253 58.4842C41.8535 62.445 43.5155 66.1191 46.4077 68.8298C49.1799 71.4294 52.762 72.8427 56.5443 72.8427C56.7076 72.8427 56.872 72.8398 57.0347 72.8357C60.9955 72.7075 64.6696 71.0455 67.3803 68.1533C70.0893 65.2623 71.5132 61.4888 71.3844 57.528V57.528ZM56.9411 69.9517C53.7592 70.0629 50.7108 68.9071 48.3816 66.7248C46.0518 64.5425 44.7134 61.5824 44.6093 58.3918C44.5051 55.2011 45.6521 52.1615 47.8362 49.8306C50.0202 47.5025 52.9785 46.1624 56.1692 46.06C56.302 46.0559 56.4331 46.0541 56.5642 46.0541C59.6091 46.0541 62.4955 47.1935 64.7287 49.2869C67.0584 51.4709 68.3968 54.4292 68.4993 57.6199C68.6028 60.8105 67.4564 63.8502 65.2741 66.1811C63.0918 68.5097 60.1317 69.8493 56.9411 69.9517V69.9517Z" fill="#5FA39A"/>
<path d="M69.2394 11.54H76.4517V14.4252H69.2394V11.54Z" fill="#5FA39A"/>
<path d="M79.337 11.54H86.5493V14.4252H79.337V11.54Z" fill="#5FA39A"/>
<path d="M69.2394 17.3098H86.5492V20.1949H69.2394V17.3098Z" fill="#5FA39A"/>
<path d="M15.042 19.4938C12.1369 23.938 10.4018 29.1225 10.1349 34.5492L10.06 36.0626H24.4676L24.577 34.7383C24.958 30.1355 27.3276 25.9336 31.0841 23.2099L32.0954 22.4755L25.3677 9.70476L24.0451 10.5545C21.3086 12.3113 18.9156 14.4837 16.9106 16.9492L14.4252 12.5999V4.32714H11.54V11.5394H8.65487V0H5.76972V11.54H2.88515V7.21229H0V11.54V12.9826V14.4252H12.1457L15.042 19.4938ZM24.3014 13.871L28.3968 21.6445C24.8784 24.5729 22.5563 28.6695 21.8581 33.1769H13.1324C13.5391 29.3238 14.7623 25.6369 16.6695 22.3421L16.8931 22.733C16.261 23.382 15.8672 24.2663 15.8672 25.243C15.8672 27.231 17.4859 28.8492 19.4733 28.8492C21.4613 28.8492 23.0794 27.2304 23.0794 25.243C23.0794 23.2971 21.5257 21.7159 19.5956 21.6497L18.4591 19.6606C20.0954 17.4713 22.05 15.5067 24.3014 13.871V13.871ZM20.1949 25.2436C20.1949 25.6416 19.8718 25.9646 19.4739 25.9646C19.0759 25.9646 18.7529 25.6416 18.7529 25.2436C18.7529 24.8456 19.0759 24.5226 19.4739 24.5226C19.8718 24.522 20.1949 24.8456 20.1949 25.2436Z" fill="#5FA39A"/>
<path d="M0 79.3369H30.2923V82.2221H0V79.3369Z" fill="#5FA39A"/>
<path d="M0 73.5666H11.54V76.4517H0V73.5666Z" fill="#5FA39A"/>
<path d="M14.4252 73.5666H30.2924V76.4517H14.4252V73.5666Z" fill="#5FA39A"/>
</svg>
