<svg width="94" height="92" viewBox="0 0 94 92" fill="none" xmlns="http://www.w3.org/2000/svg">
<g clip-path="url(#clip0_138_242)">
<path d="M70.0262 62.3492L65.4532 61.4978C65.2959 61.0916 65.1215 60.6817 64.9301 60.2755L67.5492 56.5028C67.7481 56.2173 67.8389 55.8729 67.8061 55.5288C67.7732 55.1848 67.6187 54.8628 67.3692 54.6183L60.937 48.3232C60.6884 48.0775 60.36 47.9246 60.0084 47.8907C59.6569 47.8569 59.3043 47.9442 59.0115 48.1377L55.1492 50.7103C54.7512 50.5248 54.3551 50.382 53.9609 50.2355C53.108 51.2328 52.042 52.0349 50.838 52.5853C49.634 53.1356 48.3213 53.4209 46.9924 53.4209C45.6636 53.4209 44.3509 53.1356 43.1469 52.5853C41.9429 52.0349 40.8768 51.2328 40.0239 50.2355C39.6259 50.3838 39.2279 50.5322 38.8338 50.7103L34.9809 48.1469C34.6881 47.9535 34.3355 47.8662 33.984 47.9C33.6324 47.9339 33.304 48.0868 33.0554 48.3324L26.6232 54.6258C26.3723 54.8691 26.216 55.1905 26.1814 55.5346C26.1468 55.8786 26.236 56.2237 26.4337 56.5102L29.0699 60.2811C28.8804 60.6873 28.7041 61.0972 28.5468 61.5034L23.9738 62.3547C23.6285 62.4192 23.3168 62.5992 23.0921 62.8638C22.8674 63.1283 22.7436 63.4611 22.7419 63.8052V72.7082C22.7423 73.0532 22.8655 73.3873 23.0903 73.6531C23.3151 73.9188 23.6275 74.0996 23.9738 74.1642L28.5468 75.0156C28.7047 75.4237 28.8791 75.8317 29.0699 76.2398L26.4489 80.0106C26.2512 80.2971 26.162 80.6422 26.1966 80.9862C26.2312 81.3303 26.3874 81.6517 26.6384 81.8951L33.0706 88.1903C33.3192 88.4359 33.6476 88.5888 33.9991 88.6227C34.3507 88.6565 34.7033 88.5692 34.996 88.3757L38.8508 85.805C39.2677 85.9917 39.6847 86.1623 40.1016 86.3169L40.9715 90.7925C41.0373 91.1302 41.2209 91.435 41.4909 91.6549C41.7608 91.8747 42.1004 91.9961 42.4516 91.9982H51.5484C51.9012 91.9982 52.243 91.8779 52.515 91.6578C52.7869 91.4377 52.9718 91.1317 53.038 90.7925L53.9079 86.3169C54.3229 86.163 54.7417 85.9923 55.1568 85.805L59.0115 88.3702C59.3043 88.5636 59.6569 88.651 60.0084 88.6171C60.36 88.5832 60.6884 88.4303 60.937 88.1847L67.3692 81.8895C67.6187 81.645 67.7732 81.323 67.8061 80.979C67.8389 80.635 67.7481 80.2905 67.5492 80.005L64.9301 76.2323C65.1196 75.8261 65.2959 75.4162 65.4532 75.01L70.0262 74.1587C70.3715 74.0942 70.6832 73.9142 70.9079 73.6496C71.1326 73.3851 71.2564 73.0523 71.2581 72.7082V63.8052C71.2577 63.4602 71.1345 63.1261 70.9097 62.8603C70.6849 62.5946 70.3725 62.4138 70.0262 62.3492ZM47 77.1597C45.2008 77.1597 43.4421 76.6376 41.9461 75.6593C40.4501 74.681 39.2842 73.2906 38.5957 71.6637C37.9072 70.0369 37.727 68.2468 38.078 66.5198C38.429 64.7928 39.2954 63.2064 40.5676 61.9613C41.8398 60.7162 43.4607 59.8683 45.2253 59.5247C46.9899 59.1812 48.819 59.3575 50.4812 60.0314C52.1434 60.7052 53.5641 61.8463 54.5637 63.3104C55.5633 64.7745 56.0968 66.4958 56.0968 68.2567C56.0968 70.6179 55.1384 72.8825 53.4324 74.5521C51.7264 76.2218 49.4126 77.1597 47 77.1597Z" fill="#9ED6A7"/>
<path d="M47 32.6463C54.536 32.6463 60.6452 26.6673 60.6452 19.2918C60.6452 11.9162 54.536 5.93719 47 5.93719C39.464 5.93719 33.3548 11.9162 33.3548 19.2918C33.3548 26.6673 39.464 32.6463 47 32.6463Z" fill="#9ED6A7"/>
<path d="M47 57.8698C44.901 57.8698 42.8491 58.479 41.1038 59.6203C39.3585 60.7616 37.9982 62.3839 37.1949 64.2818C36.3917 66.1798 36.1815 68.2682 36.591 70.2831C37.0005 72.2979 38.0113 74.1487 39.4955 75.6013C40.9798 77.054 42.8708 78.0432 44.9295 78.444C46.9882 78.8448 49.1221 78.6391 51.0614 77.8529C53.0006 77.0668 54.6581 75.7355 55.8243 74.0273C56.9905 72.3192 57.6129 70.311 57.6129 68.2567C57.6099 65.5028 56.4908 62.8626 54.5011 60.9153C52.5115 58.968 49.8138 57.8728 47 57.8698ZM47 75.6759C45.5007 75.6759 44.035 75.2408 42.7884 74.4255C41.5418 73.6103 40.5702 72.4516 39.9964 71.0959C39.4226 69.7402 39.2725 68.2485 39.565 66.8093C39.8575 65.3701 40.5795 64.0481 41.6397 63.0105C42.6998 61.9729 44.0506 61.2663 45.5211 60.98C46.9916 60.6938 48.5158 60.8407 49.901 61.4022C51.2862 61.9638 52.4701 62.9147 53.3031 64.1348C54.136 65.3549 54.5806 66.7893 54.5806 68.2567C54.5781 70.2236 53.7787 72.1093 52.3576 73.5002C50.9364 74.891 49.0097 75.6734 47 75.6759Z" fill="#5FA39A"/>
<path d="M15.1613 47.4847H6.06451V50.4524H15.1613V47.4847Z" fill="#5FA39A"/>
<path d="M15.1613 53.4201H6.06451V56.3878H15.1613V53.4201Z" fill="#5FA39A"/>
<path d="M87.9355 47.4847H78.8387V50.4524H87.9355V47.4847Z" fill="#5FA39A"/>
<path d="M87.9355 53.4201H78.8387V56.3878H87.9355V53.4201Z" fill="#5FA39A"/>
<mask id="mask0_138_242" style="mask-type:alpha" maskUnits="userSpaceOnUse" x="-4" y="-7" width="104" height="105">
<path d="M33.5093 5.15889C27.2426 10.3178 26.8364 18.1994 27.4167 21.4953L-3.48148 26.6542V84.6916L47.8704 97.5888L99.6574 79.1028V26.6542H65.2778C69.1074 16.3365 64.2624 8.59815 61.3611 6.01871L47.8704 -6.01868C45.6945 -4.44235 39.7759 1.52588e-05 33.5093 5.15889Z" fill="#C4C4C4"/>
</mask>
<g mask="url(#mask0_138_242)">
<path d="M84.9032 26.7091H65.1575C65.9632 24.8194 66.4546 22.8156 66.613 20.7738H86.4194C88.4299 20.7738 90.358 19.9921 91.7797 18.6007C93.2013 17.2094 94 15.3223 94 13.3546C94 11.3869 93.2013 9.49976 91.7797 8.10839C90.358 6.71702 88.4299 5.93536 86.4194 5.93536H61.191C61.0147 5.74988 60.8536 5.5644 60.6679 5.39004C58.7615 3.58346 56.4994 2.17531 54.0194 1.25125C51.5394 0.327181 48.8933 -0.0934862 46.2419 0.0148312C41.0814 0.200311 36.3662 2.46502 32.9284 5.93721H13.3723L2.40496 9.96027C1.6988 10.2195 1.09027 10.6834 0.660701 11.2901C0.231128 11.8968 0.000964834 12.6174 0.000964834 13.3555C0.000964834 14.0936 0.231128 14.8142 0.660701 15.4209C1.09027 16.0276 1.6988 16.4915 2.40496 16.7507L13.3723 20.7738H27.3813C27.5429 22.8162 28.0381 24.8201 28.8481 26.7091H9.09677V41.5475H0V62.3213H21.2258V41.5475H12.129V29.6768H30.3226V29.4765C31.8616 31.9077 33.9329 33.9743 36.3871 35.5268V37.096H33.3548V40.0637H36.3871V43.0314H33.3548V45.9991H36.5084C36.8686 48.4712 38.128 50.7332 40.0553 52.3696C41.9826 54.006 44.4485 54.9069 47 54.9069C49.5515 54.9069 52.0174 54.006 53.9447 52.3696C55.872 50.7332 57.1314 48.4712 57.4916 45.9991H60.6452V43.0314H57.6129V40.0637H60.6452V37.096H57.6129V35.525C60.069 33.97 62.1405 31.8994 63.6774 29.4635V29.6768H81.871V41.5475H72.7742V62.3213H94V41.5475H84.9032V26.7091ZM18.1935 59.3536H3.03226V44.5152H18.1935V59.3536ZM66.1658 14.8384H72.7742V17.8061H66.6339C66.558 16.8063 66.4015 15.814 66.1658 14.8384ZM75.8064 8.90304H78.8387V17.8061H75.8064V8.90304ZM90.9677 13.3546C90.9677 14.5352 90.4885 15.6674 89.6355 16.5023C88.7826 17.3371 87.6257 17.8061 86.4194 17.8061H81.871V8.90304H86.4194C87.6257 8.90304 88.7826 9.37204 89.6355 10.2069C90.4885 11.0417 90.9677 12.1739 90.9677 13.3546ZM72.7742 8.90304V11.8707H65.1936C64.7483 10.837 64.2105 9.84393 63.5864 8.90304H72.7742ZM15.1613 14.8384H27.8589C27.6171 15.8133 27.4567 16.8058 27.3794 17.8061H15.1613V14.8384ZM15.1613 11.8707V8.90304H30.5121C29.8472 9.88838 29.2762 10.9315 28.8065 12.0191V11.8707H15.1613ZM3.03226 13.3546C3.03224 13.2204 3.07418 13.0895 3.15244 12.9794C3.23071 12.8694 3.34154 12.7854 3.47004 12.7388L12.129 9.56149V17.1495L3.46814 13.9722C3.34 13.9248 3.22966 13.8402 3.1518 13.7299C3.07394 13.6196 3.03224 13.4887 3.03226 13.3546ZM47 51.9344C45.2535 51.9316 43.5614 51.3397 42.2086 50.2587C40.8558 49.1776 39.9249 47.6733 39.5729 45.9991H54.429C54.0769 47.6736 53.1458 49.1781 51.7926 50.2593C50.4394 51.3404 48.7468 51.932 47 51.9344ZM54.5806 43.0314H39.4194V40.0637H54.5806V43.0314ZM42.4516 22.2576H39.4194C38.8196 22.2576 38.2334 22.0836 37.7347 21.7575C37.2361 21.4314 36.8474 20.9679 36.6179 20.4256C36.3884 19.8833 36.3284 19.2866 36.4454 18.711C36.5624 18.1353 36.8512 17.6065 37.2752 17.1915C37.6993 16.7764 38.2396 16.4938 38.8278 16.3793C39.416 16.2648 40.0257 16.3235 40.5798 16.5481C41.1338 16.7728 41.6074 17.1531 41.9406 17.6412C42.2738 18.1292 42.4516 18.703 42.4516 19.2899V22.2576ZM48.5161 37.096H45.4839V25.2253H48.5161V37.096ZM55.3387 33.4087L54.5806 33.839V37.096H51.5484V25.2253H54.5806C55.7801 25.2253 56.9526 24.8772 57.9499 24.225C58.9472 23.5728 59.7245 22.6458 60.1835 21.5613C60.6425 20.4767 60.7626 19.2833 60.5286 18.132C60.2946 16.9806 59.717 15.9231 58.8689 15.093C58.0208 14.2629 56.9402 13.6976 55.7638 13.4686C54.5874 13.2396 53.368 13.3571 52.2599 13.8064C51.1517 14.2556 50.2046 15.0163 49.5382 15.9924C48.8718 16.9685 48.5161 18.116 48.5161 19.2899V22.2576H45.4839V19.2899C45.4839 18.116 45.1282 16.9685 44.4618 15.9924C43.7954 15.0163 42.8483 14.2556 41.7401 13.8064C40.632 13.3571 39.4126 13.2396 38.2362 13.4686C37.0598 13.6976 35.9792 14.2629 35.1311 15.093C34.283 15.9231 33.7054 16.9806 33.4714 18.132C33.2374 19.2833 33.3575 20.4767 33.8165 21.5613C34.2755 22.6458 35.0528 23.5728 36.0501 24.225C37.0474 24.8772 38.2199 25.2253 39.4194 25.2253H42.4516V37.096H39.4194V33.8408L38.6613 33.4105C36.0709 31.9464 33.9302 29.8278 32.4632 27.2765C30.9963 24.7251 30.2569 21.8347 30.3226 18.9078C30.5121 10.4481 37.7137 3.30339 46.3405 2.98251C46.566 2.96767 46.7858 2.96767 47 2.96767C51.4231 2.96767 55.6651 4.68734 58.7927 7.74835C61.9203 10.8094 63.6774 14.961 63.6774 19.2899C63.6694 22.1515 62.8953 24.9611 61.4322 27.4386C59.9691 29.9162 57.8682 31.9752 55.3387 33.4105V33.4087ZM51.5484 22.2576V19.2899C51.5484 18.703 51.7262 18.1292 52.0594 17.6412C52.3926 17.1531 52.8662 16.7728 53.4202 16.5481C53.9743 16.3235 54.584 16.2648 55.1722 16.3793C55.7604 16.4938 56.3007 16.7764 56.7248 17.1915C57.1488 17.6065 57.4376 18.1353 57.5546 18.711C57.6716 19.2866 57.6116 19.8833 57.3821 20.4256C57.1526 20.9679 56.7639 21.4314 56.2653 21.7575C55.7666 22.0836 55.1804 22.2576 54.5806 22.2576H51.5484ZM90.9677 59.3536H75.8064V44.5152H90.9677V59.3536Z" fill="#5FA39A"/>
</g>
</g>
<defs>
<clipPath id="clip0_138_242">
<rect width="94" height="92" fill="white"/>
</clipPath>
</defs>
</svg>
