<svg width="88" height="88" viewBox="0 0 88 88" fill="none" xmlns="http://www.w3.org/2000/svg">
<path d="M53.9356 79.4838C53.9356 76.3485 56.4776 73.8064 59.613 73.8064C61.8641 73.8064 63.7916 75.1264 64.7099 77.0255C65.3344 76.7899 66.0029 76.6451 66.7098 76.6451C67.2008 76.6451 67.6678 76.7331 68.122 76.8538L68.1291 76.8509V68.8543C65.6339 67.4364 63.2494 66.7097 61.0323 66.7097C56.9375 66.7097 52.2962 69.1367 47.8068 71.4844C44.291 73.3238 40.6547 75.2258 38.3227 75.2258C33.3876 75.2258 29.8065 74.0321 29.8065 72.3871H28.3872V80.9032C28.3872 84.0386 30.9292 86.5806 34.0646 86.5806H48.437C48.3206 86.1264 48.2581 85.6509 48.2581 85.1613C48.2581 82.0259 50.8002 79.4838 53.9356 79.4838Z" fill="#9ED6A7"/>
<path d="M11.3548 69.5484C9.00718 69.5484 7.09673 71.4589 7.09673 73.8065C7.09673 76.1541 9.00718 78.0645 11.3548 78.0645C13.7024 78.0645 15.6129 76.1541 15.6129 73.8065C15.6129 71.4589 13.7024 69.5484 11.3548 69.5484ZM11.3548 75.2258C10.5727 75.2258 9.93544 74.5885 9.93544 73.8065C9.93544 73.0244 10.5727 72.3871 11.3548 72.3871C12.1369 72.3871 12.7741 73.0244 12.7741 73.8065C12.7741 74.5885 12.1369 75.2258 11.3548 75.2258Z" fill="#5FA39A"/>
<path d="M17.0323 52.5161C17.0323 47.8195 13.2128 44 8.51613 44C3.81948 44 0 47.8195 0 52.5161C0 57.2128 3.81948 61.0323 8.51613 61.0323C13.2128 61.0323 17.0323 57.2128 17.0323 52.5161ZM2.83871 52.5161C2.83871 49.385 5.38503 46.8387 8.51613 46.8387C11.6472 46.8387 14.1935 49.385 14.1935 52.5161C14.1935 55.6472 11.6472 58.1936 8.51613 58.1936C5.38503 58.1936 2.83871 55.6472 2.83871 52.5161Z" fill="#5FA39A"/>
<path d="M19.8709 61.0322C17.5233 61.0322 15.6128 62.9427 15.6128 65.2903C15.6128 67.6379 17.5233 69.5484 19.8709 69.5484C22.2185 69.5484 24.129 67.6379 24.129 65.2903C24.129 62.9427 22.2185 61.0322 19.8709 61.0322ZM19.8709 66.7096C19.0888 66.7096 18.4515 66.0724 18.4515 65.2903C18.4515 64.5082 19.0888 63.8709 19.8709 63.8709C20.653 63.8709 21.2902 64.5082 21.2902 65.2903C21.2902 66.0724 20.653 66.7096 19.8709 66.7096Z" fill="#5FA39A"/>
<path d="M84.8519 43.1952C85.0563 42.5324 85.1613 41.8468 85.1613 41.1613C85.1613 37.2481 81.9777 34.0645 78.0645 34.0645C75.7992 34.0645 73.7114 35.1588 72.3956 36.9259C71.5227 36.2645 70.5064 35.8103 69.4292 35.6074C68.8188 32.3102 65.9219 29.8064 62.4516 29.8064C60.1636 29.8064 58.0843 30.9334 56.7742 32.6863V26.681C57.1148 26.5221 57.447 26.3461 57.8061 26.2268C58.6591 25.943 59.3773 25.4235 59.9252 24.7663C60.7569 25.2631 61.7008 25.5455 62.6929 25.5455H62.6943C64.1449 25.5455 65.5089 24.9806 66.5351 23.9545C67.5641 22.9297 68.129 21.5643 68.129 20.1137C68.129 18.6617 67.5641 17.2977 66.5365 16.2701L61.6908 11.4244C60.3396 10.0746 58.6236 9.17613 56.7742 8.77161V4.25806C56.7742 1.91045 54.8637 0 52.5161 0C50.1685 0 48.2581 1.91045 48.2581 4.25806V8.51613H46.0112C44.4769 8.51613 42.9397 8.87806 41.5672 9.56503L32.3102 14.1935H0V31.2258H32.4138L39.045 33.4357C40.2969 33.853 41.5999 34.0645 42.9185 34.0645C44.7778 34.0645 46.6031 33.6316 48.2581 32.8297V39.7419H21.2903V44.8772L24.6145 46.5392C26.0665 47.2645 26.9677 48.7236 26.9677 50.3474V80.9032C26.9677 84.8164 30.1514 88 34.0645 88H47.3355H49.6774H80.9032C84.8164 88 88 84.8164 88 80.9032C88 76.9901 84.8164 73.8064 80.9032 73.8064C80.459 73.8064 80.0105 73.8519 79.5634 73.9427C78.2448 72.0834 76.1314 70.9677 73.8064 70.9677C72.2253 70.9677 70.7492 71.5142 69.5484 72.4212V64.7041C70.6044 65.1711 71.7725 65.3826 72.9705 65.2619C74.0747 67.8111 76.6281 69.5484 79.4839 69.5484C83.397 69.5484 86.5806 66.3648 86.5806 62.4516C86.5806 61.4836 86.3834 60.5383 86.0044 59.6597C87.2477 58.5952 88 57.024 88 55.3548C88 54.0448 87.5515 52.8 86.7538 51.8064C87.5515 50.8129 88 49.5681 88 48.2581C88 46.0779 86.7283 44.1348 84.8519 43.1952ZM53.9355 28.5787V34.2079C52.8809 34.4236 51.9257 34.892 51.0968 35.5194V30.9434L53.9355 28.5787ZM59.6839 13.4328L64.5295 18.2785C65.0206 18.7681 65.2903 19.4196 65.2903 20.1137C65.2903 20.8063 65.0206 21.4578 64.5295 21.9489C64.0399 22.4386 63.3884 22.7083 62.6957 22.7083C62.067 22.7083 61.4794 22.4769 61.0081 22.0695C61.0138 21.9631 61.0323 21.8595 61.0323 21.7516C61.0323 19.3075 59.1573 17.3147 56.7742 17.0791V11.6969C57.8628 12.0375 58.8692 12.6166 59.6839 13.4328ZM52.5161 2.83871C53.2982 2.83871 53.9355 3.476 53.9355 4.25806V17.309C52.9377 17.5375 51.9839 17.908 51.0968 18.4119V4.25806C51.0968 3.476 51.7341 2.83871 52.5161 2.83871ZM31.2258 28.3871H2.83871V17.0323H31.2258V28.3871ZM39.9435 30.7432L34.0645 28.7831V16.4901L42.8361 12.1043C43.8169 11.6146 44.9155 11.3548 46.0112 11.3548H48.2581V20.7027L47.4987 21.4621C46.6939 22.2668 45.6252 22.7097 44.4868 22.7097H39.7419V25.5484H44.4868C46.3831 25.5484 48.1658 24.8103 49.5057 23.469L50.8356 22.1391C52.299 20.6772 54.2435 19.871 56.3129 19.871C57.3504 19.871 58.1935 20.7141 58.1935 21.7516C58.1935 22.5621 57.6769 23.2788 56.909 23.5343C55.4116 24.0325 54.0391 24.7975 52.8255 25.8095L48.9422 29.0457C46.4768 31.0995 42.9908 31.7609 39.9435 30.7432ZM34.0645 85.1613C31.7169 85.1613 29.8064 83.2508 29.8064 80.9032V72.3871C29.8064 70.7421 33.3875 69.5484 38.3226 69.5484C40.0797 69.5484 42.5906 70.6555 45.5059 72.6738C46.2695 72.2877 47.0403 71.8861 47.8067 71.4858C47.9799 71.395 48.1559 71.3041 48.3304 71.2133C44.3492 68.2369 40.9796 66.7097 38.3226 66.7097C37.4809 66.7097 36.6832 66.7423 35.9239 66.8005C35.64 66.352 35.4839 65.8339 35.4839 65.2903C35.4839 63.7248 36.757 62.4516 38.3226 62.4516C38.6292 62.4516 38.9428 62.5112 39.2849 62.6347L41.3174 63.3714L41.1854 61.2139L41.1613 61.0323C41.1613 59.4667 42.4345 58.1935 44 58.1935C45.5655 58.1935 46.8387 59.4667 46.8387 61.0323V62.4516H48.2581C48.9578 62.4516 49.6348 62.7199 50.1671 63.2081L52.3401 65.2009L52.5417 62.2586C52.6439 60.7754 53.8787 59.6129 55.3548 59.6129C56.9204 59.6129 58.1935 60.8861 58.1935 62.4019L58.1013 63.6893L59.1204 64.0441C60.263 64.443 61.0323 65.5146 61.0323 66.7097C61.9378 66.7097 62.8774 66.8615 63.8355 67.1014C63.8454 66.9708 63.871 66.8417 63.871 66.7097C63.871 64.6544 62.7483 62.7852 60.9939 61.7902C60.6646 58.9699 58.2617 56.7742 55.3548 56.7742C53.135 56.7742 51.1848 58.08 50.2622 59.9848C50.0252 59.8939 49.781 59.8187 49.5341 59.7605C48.955 57.2397 46.6925 55.3548 44 55.3548C41.3586 55.3548 39.1316 57.1688 38.5014 59.6157C35.3391 59.5008 32.6452 62.0996 32.6452 65.2903C32.6452 65.9574 32.7772 66.6018 32.9972 67.2135C31.7538 67.4804 30.6836 67.848 29.8064 68.3121V50.3474C29.8064 47.6421 28.3034 45.2093 25.8834 44L24.129 43.1228V42.5806H64.1719C65.5714 42.5806 66.7097 43.719 66.7097 45.1185V75.2443C66.2626 75.2428 65.8169 75.2726 65.3698 75.3621C64.0512 73.5027 61.9378 72.3871 59.6129 72.3871C56.144 72.3871 53.2485 74.8894 52.6354 78.1837C49.341 78.7969 46.8387 81.6924 46.8387 85.1613H34.0645ZM73.8064 73.8064C75.4401 73.8064 76.9049 74.7333 77.6245 76.225L78.1894 77.3946L79.4044 76.9347C82.3623 75.8134 85.1613 78.0688 85.1613 80.9032C85.1613 83.2508 83.2508 85.1613 80.9032 85.1613H49.6774C49.6774 82.8137 51.5879 80.9032 53.9355 80.9032H55.3548V79.4839C55.3548 77.1363 57.2653 75.2258 59.6129 75.2258C61.2466 75.2258 62.7113 76.1526 63.431 77.6444L63.9959 78.8139L65.2108 78.3541C66.0766 78.0276 66.7934 77.9453 67.865 78.2505L69.3284 78.6663L69.6435 77.1788C70.0565 75.2244 71.808 73.8064 73.8064 73.8064ZM83.8867 52.9888C84.6858 53.5182 85.1613 54.4025 85.1613 55.3548C85.1613 56.4577 84.5339 57.4385 83.5219 57.9139L81.9947 58.6321L82.9655 60.0132C83.4737 60.737 83.7419 61.5801 83.7419 62.4516C83.7419 64.7992 81.8315 66.7097 79.4839 66.7097C77.4854 66.7097 75.7339 65.2917 75.3209 63.3373L75.0058 61.8498L73.5424 62.2657C73.0996 62.392 72.732 62.4516 72.3871 62.4516C71.3283 62.4516 70.3276 62.0372 69.5484 61.3346V45.1185C69.5484 42.1534 67.1369 39.7419 64.1719 39.7419H51.3579C51.9455 38.0941 53.5068 36.9032 55.3548 36.9032C55.6997 36.9032 56.0674 36.9628 56.5116 37.0892L57.975 37.505L58.2901 36.0175C58.7017 34.0631 60.4532 32.6452 62.4516 32.6452C64.7992 32.6452 66.7097 34.5556 66.7097 36.9032V38.3226H68.129C69.5058 38.3226 70.7634 38.9726 71.5795 40.1067L73.1649 42.3124L74.0704 39.7519C74.6723 38.0486 76.2775 36.9032 78.0645 36.9032C80.4121 36.9032 82.3226 38.8137 82.3226 41.1613C82.3226 41.915 82.1139 42.6445 81.7037 43.3315L80.6066 45.1653L82.7228 45.4662C84.1124 45.6635 85.1613 46.8643 85.1613 48.2581C85.1613 49.2104 84.6858 50.0947 83.8867 50.6241L82.1026 51.8064L83.8867 52.9888Z" fill="#5FA39A"/>
<path d="M73.8064 49.6774H70.9677C70.9677 52.025 72.8781 53.9355 75.2257 53.9355V51.0968C74.4437 51.0968 73.8064 50.4595 73.8064 49.6774Z" fill="#5FA39A"/>
<path d="M76.6451 53.9355V56.7742C77.4272 56.7742 78.0645 57.4115 78.0645 58.1935H80.9032C80.9032 55.8459 78.9928 53.9355 76.6451 53.9355Z" fill="#5FA39A"/>
<path d="M79.4839 44C78.7018 44 78.0645 43.3627 78.0645 42.5806H75.2258C75.2258 44.9282 77.1362 46.8387 79.4839 46.8387V44Z" fill="#5FA39A"/>
<path d="M73.8064 22.7097C73.8064 25.0573 75.7168 26.9677 78.0645 26.9677C80.4121 26.9677 82.3225 25.0573 82.3225 22.7097C82.3225 20.3621 80.4121 18.4516 78.0645 18.4516C75.7168 18.4516 73.8064 20.3621 73.8064 22.7097ZM79.4838 22.7097C79.4838 23.4917 78.8465 24.129 78.0645 24.129C77.2824 24.129 76.6451 23.4917 76.6451 22.7097C76.6451 21.9276 77.2824 21.2903 78.0645 21.2903C78.8465 21.2903 79.4838 21.9276 79.4838 22.7097Z" fill="#5FA39A"/>
<path d="M72.3871 14.1936C75.5182 14.1936 78.0645 11.6473 78.0645 8.51616C78.0645 5.38507 75.5182 2.83875 72.3871 2.83875C69.256 2.83875 66.7097 5.38507 66.7097 8.51616C66.7097 11.6473 69.256 14.1936 72.3871 14.1936ZM72.3871 5.67745C73.9527 5.67745 75.2258 6.95062 75.2258 8.51616C75.2258 10.0817 73.9527 11.3549 72.3871 11.3549C70.8216 11.3549 69.5484 10.0817 69.5484 8.51616C69.5484 6.95062 70.8216 5.67745 72.3871 5.67745Z" fill="#5FA39A"/>
<path d="M83.7419 15.6129C86.0896 15.6129 88 13.7025 88 11.3549C88 9.00725 86.0896 7.0968 83.7419 7.0968C81.3943 7.0968 79.4839 9.00725 79.4839 11.3549C79.4839 13.7025 81.3943 15.6129 83.7419 15.6129ZM83.7419 9.93551C84.524 9.93551 85.1613 10.5728 85.1613 11.3549C85.1613 12.1369 84.524 12.7742 83.7419 12.7742C82.9599 12.7742 82.3226 12.1369 82.3226 11.3549C82.3226 10.5728 82.9599 9.93551 83.7419 9.93551Z" fill="#5FA39A"/>
<path d="M36.9032 45.4194C34.5556 45.4194 32.6451 47.3298 32.6451 49.6774C32.6451 52.025 34.5556 53.9355 36.9032 53.9355C39.2508 53.9355 41.1613 52.025 41.1613 49.6774C41.1613 47.3298 39.2508 45.4194 36.9032 45.4194ZM36.9032 51.0968C36.1211 51.0968 35.4839 50.4595 35.4839 49.6774C35.4839 48.8954 36.1211 48.2581 36.9032 48.2581C37.6853 48.2581 38.3226 48.8954 38.3226 49.6774C38.3226 50.4595 37.6853 51.0968 36.9032 51.0968Z" fill="#5FA39A"/>
<path d="M59.6129 48.2581C57.2653 48.2581 55.3549 50.1685 55.3549 52.5161C55.3549 54.8637 57.2653 56.7742 59.6129 56.7742C61.9605 56.7742 63.871 54.8637 63.871 52.5161C63.871 50.1685 61.9605 48.2581 59.6129 48.2581ZM59.6129 53.9355C58.8309 53.9355 58.1936 53.2982 58.1936 52.5161C58.1936 51.7341 58.8309 51.0968 59.6129 51.0968C60.395 51.0968 61.0323 51.7341 61.0323 52.5161C61.0323 53.2982 60.395 53.9355 59.6129 53.9355Z" fill="#5FA39A"/>
</svg>
