<svg width="68" height="68" viewBox="0 0 68 68" fill="none" xmlns="http://www.w3.org/2000/svg">
<g clip-path="url(#clip0_101_448)">
<path d="M37.6393 12.1761C34.2373 8.77473 29.7142 6.90106 24.9032 6.90106C20.0923 6.90106 15.5678 8.77473 12.1672 12.1761C8.76515 15.5775 6.89114 20.0998 6.89114 24.9099C6.89114 29.7199 8.76515 34.2436 12.1672 37.645C15.5692 41.0464 20.0923 42.92 24.9032 42.92C29.7142 42.92 34.2373 41.0464 37.6393 37.645C41.0358 34.2491 42.907 29.7269 42.907 24.9099C42.907 20.0942 41.0372 15.572 37.6393 12.1761ZM35.285 35.2897C32.5128 38.0629 28.8256 39.5892 24.9032 39.5892C20.9822 39.5892 17.2951 38.0629 14.5214 35.2897C11.7478 32.5166 10.2212 28.8302 10.2212 24.9099C10.2212 20.9895 11.7478 17.3031 14.5214 14.53C17.2937 11.7568 20.9808 10.2305 24.9032 10.2305C28.8243 10.2305 32.5114 11.7568 35.285 14.53C38.0531 17.2976 39.5784 20.984 39.5784 24.9099C39.5784 28.8357 38.0531 32.5221 35.285 35.2897Z" fill="#5FA39A"/>
<path d="M66.2685 57.0099L66.2643 57.0057L66.2615 57.0015C66.2311 56.967 66.202 56.9351 66.173 56.9061L46.6938 37.4055L46.5457 37.2575L46.6481 37.0748C47.9574 34.7334 48.8737 32.2024 49.3719 29.5538C49.8633 26.944 49.938 24.2843 49.592 21.6496C49.2432 18.9858 48.4751 16.4174 47.3083 14.0138C46.1014 11.5271 44.4904 9.26732 42.5195 7.29678C37.8151 2.59048 31.5578 0 24.9032 0C18.2473 0 11.9914 2.59048 7.28558 7.2954C-2.4291 17.0083 -2.4291 32.8113 7.28558 42.5242C11.9914 47.2291 18.2487 49.821 24.9032 49.821C29.173 49.821 33.375 48.7306 37.0552 46.6687L37.2379 46.5663L37.386 46.7144L56.9053 66.1734C56.9358 66.2038 56.969 66.2343 57.0036 66.2647L57.0078 66.2689L57.0119 66.273C58.216 67.3884 59.7966 68.0014 61.4603 68.0014C63.2208 68.0014 64.8678 67.3247 66.0955 66.0973C67.2913 64.9017 67.9667 63.2992 67.9985 61.5861C68.0304 59.8716 67.4158 58.247 66.2685 57.0099ZM24.9032 46.4902C19.1372 46.4902 13.7173 44.2457 9.64125 40.169C1.22619 31.7541 1.22619 18.0641 9.64125 9.65063C13.7173 5.57534 19.1372 3.33081 24.9032 3.33081C30.6692 3.33081 36.0892 5.57534 40.1652 9.65201C48.5802 18.0655 48.5802 31.7569 40.1652 40.1704C36.0892 44.2457 30.6678 46.4902 24.9032 46.4902ZM42.4101 47.0202L42.2219 46.832L40.2856 44.9016L40.0655 44.6816L40.3105 44.4878C41.0842 43.8762 41.8288 43.2147 42.5209 42.5228C43.206 41.8379 43.862 41.1003 44.471 40.3281L44.6634 40.0832L44.8834 40.3032L46.9761 42.3983L47.1796 42.6017L46.9692 42.7968L42.6053 46.8361L42.4101 47.0202ZM63.7398 63.7407C63.135 64.3454 62.3267 64.6775 61.4616 64.6775C60.6229 64.6775 59.8326 64.362 59.2347 63.7891C59.2222 63.7766 59.2098 63.7656 59.1987 63.7559L59.1932 63.7503L59.1876 63.7448L44.9748 49.5774L44.7713 49.374L44.9831 49.1789L49.3401 45.1451L49.5352 44.9639L49.7235 45.1521L63.7495 59.1921L63.7536 59.1963L63.7578 59.2004C63.7675 59.2115 63.7786 59.2225 63.7896 59.2336C64.991 60.4901 64.9688 62.5118 63.7398 63.7407Z" fill="#5FA39A"/>
<path d="M30.7039 23.1648H26.6029H26.3261V22.8881V18.7879C26.3261 17.869 25.5787 17.1232 24.6611 17.1232C23.7435 17.1232 22.9961 17.8704 22.9961 18.7879V22.8881V23.1648H22.7193H18.6183C17.6993 23.1648 16.9533 23.9121 16.9533 24.8296C16.9533 25.747 17.7007 26.4943 18.6183 26.4943H22.7193H22.9961V26.771V30.8712C22.9961 31.7901 23.7435 32.5359 24.6611 32.5359C25.5787 32.5359 26.3261 31.7887 26.3261 30.8712V26.771V26.4943H26.6029H30.7039C31.6229 26.4943 32.3689 25.747 32.3689 24.8296C32.3703 23.9121 31.6229 23.1648 30.7039 23.1648Z" fill="#9ED6A7"/>
</g>
<defs>
<clipPath id="clip0_101_448">
<rect width="68" height="68" fill="white"/>
</clipPath>
</defs>
</svg>
