<svg width="86" height="85" viewBox="0 0 86 85" fill="none" xmlns="http://www.w3.org/2000/svg">
<path d="M38.3315 12.3209C29.2592 12.3209 21.9037 19.6764 21.9037 28.7487C21.9037 36.4027 27.1387 42.8355 34.2245 44.659V36.9626C34.2245 35.4498 35.4498 34.2246 36.9625 34.2246C38.4752 34.2246 39.7005 35.4498 39.7005 36.9626V45.1203C48.1334 44.4249 54.7593 37.3609 54.7593 28.7487C54.7593 19.6764 47.4038 12.3209 38.3315 12.3209V12.3209Z" fill="#9ED6A7"/>
<path d="M74.4659 0H70.6478C66.4163 0 62.9733 3.44299 62.9733 7.67316C62.9733 9.26939 63.5948 10.7712 64.7242 11.9006L66.5135 13.6898H67.2732C67.1596 13.2504 67.0802 12.7959 67.0802 12.3209V10.7164C67.0802 9.99085 67.3691 9.29403 67.8824 8.78066L69.8182 6.84492H75.2941L77.2299 8.78066C77.7432 9.29403 78.0321 9.99085 78.0321 10.7164V12.3209C78.0321 12.7959 77.9527 13.2504 77.8391 13.6898H78.5989L80.3881 11.9006C81.5175 10.7712 82.139 9.26939 82.139 7.67316C82.139 3.44299 78.696 0 74.4659 0V0Z" fill="#9ED6A7"/>
<path d="M84.877 68.8585L83.0685 68.2028L83.8845 66.4601L78.6549 61.2305L76.9122 62.0465L76.2537 60.2353H68.8585L68.2027 62.0437L66.46 61.2278L61.2305 66.4573L62.0464 68.2L60.2353 68.8585V76.2538L62.0437 76.9095L61.2278 78.6522L66.4573 83.8817L68.2 83.0658L68.8585 84.877H76.2537L76.9095 83.0686L78.6522 83.8845L83.8817 78.655L83.0658 76.9123L84.877 76.2538V68.8585ZM72.5561 78.0321C69.532 78.0321 67.0802 75.5802 67.0802 72.5561C67.0802 69.5321 69.532 67.0802 72.5561 67.0802C75.5802 67.0802 78.0321 69.5321 78.0321 72.5561C78.0321 75.5802 75.5802 78.0321 72.5561 78.0321Z" fill="#9ED6A7"/>
<path d="M5.47601 6.84491H13.6899V17.7968H5.47601V6.84491Z" fill="#9ED6A7"/>
<path d="M54.387 52.9126L52.0214 52.3226V52.3212L46.5455 50.9522L43.8075 50.2677L41.0695 49.5832V46.3196C49.6065 44.9875 56.1283 37.5129 56.1283 28.7487C56.1283 18.9358 48.1444 10.9519 38.3316 10.9519C28.5187 10.9519 20.5348 18.9358 20.5348 28.7487C20.5348 30.5516 20.8195 32.2971 21.3247 33.9535C17.3519 36.7723 12.544 38.3315 7.6622 38.3315H4.10695C1.84265 38.3315 0 40.1742 0 42.4385V45.1765C0 47.4408 1.84265 49.2834 4.10695 49.2834H5.89621L9.58289 59.1155V65.7112H4.10695C1.84265 65.7112 0 67.5539 0 69.8182V75.2941C0 77.5584 1.84265 79.4011 4.10695 79.4011H6.27816L10.7862 83.9105C11.4119 84.5334 12.2401 84.877 13.1217 84.877C14.9452 84.877 16.4278 83.3944 16.4278 81.5709V79.4011H20.5348C22.7991 79.4011 24.6417 77.5584 24.6417 75.2941V69.8182C24.6417 67.5539 22.7991 65.7112 20.5348 65.7112H12.3209V60.2353H15.0588V50.4922C17.7133 51.3684 20.2158 52.699 22.4171 54.4595L24.6417 56.2379V40.1071C26.7527 42.6534 29.5701 44.6138 32.8556 45.6734V55.0811C31.54 54.005 29.9164 53.3904 28.108 53.3904C27.1798 53.3904 26.3105 53.7518 25.6548 54.4075C24.999 55.0646 24.639 55.9394 24.6417 56.9744C24.6417 57.5274 24.7731 58.0832 25.0196 58.5775L26.6555 61.8521C27.1292 62.7967 27.3797 63.8549 27.3797 64.9117V69.8182C27.3797 78.1211 34.1356 84.877 42.4385 84.877C50.7414 84.877 57.4973 78.1211 57.4973 69.8182V56.8977C57.4973 55.0099 56.2173 53.3698 54.387 52.9126V52.9126ZM21.9037 69.8182V75.2941C21.9037 76.0498 21.2904 76.6631 20.5348 76.6631H13.6898V81.5709C13.6898 82.035 13.0492 82.2965 12.7206 81.9734L7.41168 76.6631H4.10695C3.35127 76.6631 2.73797 76.0498 2.73797 75.2941V69.8182C2.73797 69.0625 3.35127 68.4492 4.10695 68.4492H20.5348C21.2904 68.4492 21.9037 69.0625 21.9037 69.8182ZM2.73797 45.1765V42.4385C2.73797 41.6828 3.35127 41.0695 4.10695 41.0695H7.6622C7.84565 41.0695 8.02909 41.0531 8.2139 41.049V46.5646C8.02909 46.5619 7.84702 46.5455 7.6622 46.5455H4.10695C3.35127 46.5455 2.73797 45.9321 2.73797 45.1765V45.1765ZM12.3209 57.4973H11.9006L8.83953 49.3341C10.0127 49.3929 11.175 49.5394 12.3209 49.7708V57.4973ZM21.9037 50.7263C18.599 48.6085 14.8425 47.2614 10.9519 46.7672V40.8491C14.8398 40.3549 18.6018 39.0065 21.9037 36.89V50.7263ZM23.3384 30.1176H30.156C30.2203 32.0096 30.4079 33.8604 30.7255 35.5936H24.9278C24.0681 33.9138 23.515 32.0643 23.3384 30.1176ZM38.3316 13.6898C39.8032 13.6898 41.3707 15.7803 42.4508 19.1658H34.2109C35.2924 15.7803 36.8599 13.6898 38.3316 13.6898ZM43.149 21.9037C43.483 23.5588 43.7076 25.3988 43.7787 27.3797H32.8844C32.9556 25.3988 33.1814 23.5588 33.5141 21.9037H43.149ZM53.3206 27.3797H46.5153C46.4524 25.4371 46.2634 23.5972 45.9554 21.9037H51.7271C52.5854 23.5753 53.144 25.422 53.3206 27.3797ZM53.3247 30.1176C53.1453 32.0657 52.5868 33.9166 51.7216 35.5936H45.939C46.2566 33.8604 46.4442 32.0096 46.5085 30.1176H53.3247ZM30.1478 27.3797H23.3425C23.5205 25.422 24.0777 23.5753 24.936 21.9037H30.7077C30.3997 23.5972 30.2094 25.4371 30.1478 27.3797V27.3797ZM33.3909 34.9762C33.1171 33.4388 32.9542 31.7988 32.8926 30.1176H43.7705C43.7021 32.0287 43.4899 33.8796 43.1463 35.5936H40.8176C40.2509 34.0042 38.745 32.8556 36.9626 32.8556C35.4225 32.8556 34.0932 33.7181 33.3909 34.9762ZM41.0695 43.5556V38.3315H49.894C47.6886 40.9887 44.6015 42.9012 41.0695 43.5556ZM49.9392 19.1658H45.3216C44.8178 17.3929 44.1757 15.8501 43.4173 14.592C45.9814 15.5174 48.232 17.1027 49.9392 19.1658V19.1658ZM33.2471 14.592C32.4901 15.8501 31.8467 17.3929 31.3429 19.1658H26.7253C28.4311 17.1027 30.6817 15.5174 33.2471 14.592ZM26.7239 38.3315H32.8556V42.7684C30.4229 41.8211 28.3298 40.2782 26.7239 38.3315V38.3315ZM54.7594 69.8182C54.7594 76.6124 49.2328 82.139 42.4385 82.139C35.6442 82.139 30.1176 76.6124 30.1176 69.8182V64.9117C30.1176 63.4319 29.7672 61.9493 29.106 60.6268L27.47 57.3522C27.4098 57.2372 27.3797 57.1058 27.3797 56.8648C27.3797 56.665 27.4563 56.4802 27.5932 56.3405C27.7315 56.205 27.9136 56.1283 28.2079 56.1283C29.4496 56.1283 30.6173 56.613 31.4948 57.4891C32.3724 58.3666 32.8556 59.5303 32.8556 60.7692V62.9733V67.0802H35.5936V62.9733V60.7692V36.9626C35.5936 36.2069 36.2069 35.5936 36.9626 35.5936C37.7182 35.5936 38.3316 36.2069 38.3316 36.9626V48.8987V67.0802H41.0695V52.4061L43.8075 53.0906V67.0802H46.5455V53.7751L49.2834 54.4595V67.0802H52.0214V55.1427L53.7217 55.5684C54.3322 55.7217 54.7594 56.268 54.7594 56.8977V69.8182Z" fill="#5FA39A"/>
<path d="M84.2677 24.9812C83.7105 21.6299 81.0971 18.9289 77.7623 18.2636C77.3666 18.1842 77.0545 17.9296 76.8615 17.5983C78.3989 16.3416 79.401 14.4551 79.401 12.3209V10.7164C79.401 9.61985 78.9725 8.58764 78.1976 7.81279L76.2619 5.87705L74.3261 7.81279L76.2619 9.74854C76.5179 10.0045 76.663 10.3564 76.663 10.7164V12.3209C76.663 14.5852 74.8203 16.4278 72.556 16.4278C70.2917 16.4278 68.4491 14.5852 68.4491 12.3209V10.7164C68.4491 10.3564 68.5942 10.0032 68.8502 9.74854L69.8181 8.78067L71.5882 10.5508L73.5239 8.61502L69.8181 4.90918L66.9145 7.81279C66.1396 8.58764 65.7111 9.61985 65.7111 10.7164V12.3209C65.7111 14.4551 66.7132 16.3416 68.2506 17.5983C68.0589 17.9296 67.7454 18.1842 67.3484 18.2636C64.0149 18.9289 61.4016 21.6299 60.8444 24.9812L59.9874 30.1177H85.1233L84.2677 24.9812ZM72.556 19.1658C73.2104 19.1658 73.8306 19.0439 74.4302 18.8728C74.5438 19.0823 74.6725 19.2794 74.819 19.4656L73.5458 21.3753C73.105 22.0379 72.0084 22.0379 71.5676 21.3753L70.2945 19.4656C70.441 19.2808 70.5696 19.0823 70.6833 18.8728C71.2815 19.0439 71.9017 19.1658 72.556 19.1658V19.1658ZM63.2209 27.3797L63.5454 25.4302C63.9177 23.1933 65.6618 21.3931 67.8851 20.9482C67.9166 20.9414 67.9439 20.929 67.974 20.9222L69.2883 22.8935C70.0193 23.9873 71.2404 24.6417 72.556 24.6417C73.8716 24.6417 75.0928 23.9873 75.8238 22.8935L77.138 20.9222C77.1681 20.929 77.1955 20.9414 77.227 20.9482C79.4516 21.3931 81.1943 23.1947 81.5681 25.4302L81.8911 27.3797H63.2209Z" fill="#5FA39A"/>
<path d="M72.5562 65.7112C68.7819 65.7112 65.7113 68.7819 65.7113 72.5562C65.7113 76.3305 68.7819 79.4011 72.5562 79.4011C76.3305 79.4011 79.4011 76.3305 79.4011 72.5562C79.4011 68.7819 76.3305 65.7112 72.5562 65.7112ZM72.5562 76.6631C70.2919 76.6631 68.4492 74.8205 68.4492 72.5562C68.4492 70.2919 70.2919 68.4492 72.5562 68.4492C74.8205 68.4492 76.6631 70.2919 76.6631 72.5562C76.6631 74.8205 74.8205 76.6631 72.5562 76.6631Z" fill="#5FA39A"/>
<path d="M5.47601 5.47595H13.6899V8.21392H5.47601V5.47595Z" fill="#5FA39A"/>
<path d="M5.47601 10.9519H13.6899V13.6898H5.47601V10.9519Z" fill="#5FA39A"/>
<path d="M5.47601 16.4278H13.6899V19.1658H5.47601V16.4278Z" fill="#5FA39A"/>
<path d="M10.9519 71.1872H13.6899V73.9251H10.9519V71.1872Z" fill="#5FA39A"/>
<path d="M5.47601 71.1872H8.21398V73.9251H5.47601V71.1872Z" fill="#5FA39A"/>
<path d="M16.4278 71.1872H19.1658V73.9251H16.4278V71.1872Z" fill="#5FA39A"/>
<path d="M8.2139 35.5936H10.9519V24.6417H19.1658V0H0V24.6417H8.2139V35.5936ZM2.73797 2.73797H16.4278V21.9037H2.73797V2.73797Z" fill="#5FA39A"/>
<path d="M71.1872 32.8556H73.9251V41.0695H71.1872V32.8556Z" fill="#5FA39A"/>
<path d="M71.1872 43.8075H73.9251V46.5455H71.1872V43.8075Z" fill="#5FA39A"/>
<path d="M71.1872 49.2834H73.9251V57.4974H71.1872V49.2834Z" fill="#5FA39A"/>
</svg>
