<svg width="85" height="86" viewBox="0 0 85 86" fill="none" xmlns="http://www.w3.org/2000/svg">
<path d="M36.7031 42.625C36.7031 41.239 37.2265 39.9891 38.0625 39.0225V31.625C38.0625 23.2856 31.354 16.5 23.1094 16.5H17.6719C9.42727 16.5 2.71875 23.2856 2.71875 31.625V48.125C2.71875 52.3765 4.49953 56.4314 7.59891 59.2914C9.24919 57.7747 11.1727 56.529 13.3232 55.66L13.6631 55.5225C14.4733 55.1953 15.0795 54.4926 15.2916 53.636L16.1847 50.0211H16.1888C12.2684 48.3588 9.51562 44.4428 9.51562 39.875V33C9.51562 30.7216 11.3413 28.875 13.5938 28.875H27.1875C29.44 28.875 31.2656 30.7216 31.2656 33V39.875C31.2656 44.4428 28.5129 48.3588 24.5938 50.0211H24.5965L25.4896 53.636C25.7017 54.4926 26.3066 55.1939 27.1182 55.5225L27.458 55.66C29.6085 56.5304 31.5321 57.7747 33.1823 59.2914C36.2817 56.4314 38.0625 52.3765 38.0625 48.125V46.2275C37.2265 45.2609 36.7031 44.011 36.7031 42.625V42.625Z" fill="#9ED6A7"/>
<path d="M14.9531 38.5C15.7039 38.5 16.3125 37.8844 16.3125 37.125C16.3125 36.3656 15.7039 35.75 14.9531 35.75C14.2024 35.75 13.5938 36.3656 13.5938 37.125C13.5938 37.8844 14.2024 38.5 14.9531 38.5Z" fill="#5FA39A"/>
<path d="M25.8281 38.5C26.5789 38.5 27.1875 37.8844 27.1875 37.125C27.1875 36.3656 26.5789 35.75 25.8281 35.75C25.0774 35.75 24.4688 36.3656 24.4688 37.125C24.4688 37.8844 25.0774 38.5 25.8281 38.5Z" fill="#5FA39A"/>
<path d="M23.1094 42.3005C22.5915 43.3483 21.5502 44 20.3906 44C19.2311 44 18.1898 43.3483 17.6719 42.3005L17.5292 42.0104L15.0972 43.241L15.24 43.5312C16.2214 45.5167 18.1952 46.75 20.3906 46.75C22.586 46.75 24.5598 45.5167 25.5413 43.5298L25.684 43.2397L23.2521 42.009L23.1094 42.3005Z" fill="#5FA39A"/>
<path d="M15.225 28.325L17.3989 26.6758L21.477 32.1758L19.3031 33.825L15.225 28.325Z" fill="#5FA39A"/>
<path d="M22.0219 28.325L24.1958 26.6758L28.2739 32.1758L26.1 33.825L22.0219 28.325Z" fill="#5FA39A"/>
<path d="M81.9159 62.3246L76.0652 68.8353C74.6446 67.3929 72.7728 66.4139 70.6875 66.11V60.5H67.9688V66.11C63.3659 66.781 59.8125 70.7864 59.8125 75.625C59.8125 80.9311 64.0823 85.25 69.3281 85.25C74.574 85.25 78.8438 80.9311 78.8438 75.625C78.8438 73.9846 78.4332 72.4405 77.7155 71.0875L83.9278 64.1754L81.9159 62.3246ZM76.125 75.625C76.125 79.4159 73.0759 82.5 69.3281 82.5C65.5803 82.5 62.5313 79.4159 62.5313 75.625C62.5313 71.8341 65.5803 68.75 69.3281 68.75C71.2557 68.75 72.9876 69.5736 74.226 70.8812L69.2819 76.384L66.2111 73.2779L64.2889 75.2221L69.3743 80.366L75.705 73.3233C75.9605 74.0465 76.125 74.8138 76.125 75.625Z" fill="#5FA39A"/>
<path d="M67.9688 52.25H70.6875V57.75H67.9688V52.25Z" fill="#5FA39A"/>
<path d="M43.5 82.5H48.9375V85.25H43.5V82.5Z" fill="#5FA39A"/>
<path d="M51.6562 82.5H57.0938V85.25H51.6562V82.5Z" fill="#5FA39A"/>
<path d="M42.1406 22C42.8914 22 43.5 21.3844 43.5 20.625C43.5 19.8656 42.8914 19.25 42.1406 19.25C41.3899 19.25 40.7812 19.8656 40.7812 20.625C40.7812 21.3844 41.3899 22 42.1406 22Z" fill="#5FA39A"/>
<path d="M42.1406 66C42.8914 66 43.5 65.3844 43.5 64.625C43.5 63.8656 42.8914 63.25 42.1406 63.25C41.3899 63.25 40.7812 63.8656 40.7812 64.625C40.7812 65.3844 41.3899 66 42.1406 66Z" fill="#5FA39A"/>
<path d="M56.5595 57.2096C56.028 57.7473 56.028 58.6176 56.5595 59.1539C56.8246 59.422 57.1726 59.5568 57.5206 59.5568C57.8686 59.5568 58.2166 59.422 58.4817 59.1539C59.0132 58.6163 59.0132 57.7459 58.4817 57.2096C58.2166 56.9415 57.8686 56.8068 57.5206 56.8068C57.1726 56.8068 56.8246 56.9401 56.5595 57.2096Z" fill="#5FA39A"/>
<path d="M64.1897 55.2035C63.2422 54.2451 62.9608 52.8165 63.4733 51.5639C63.9844 50.3099 65.1834 49.5 66.5251 49.5H70.6875V43.8611C73.7855 43.2217 76.125 40.4456 76.125 37.125V31.8436C76.6239 29.9695 77.8759 28.4116 79.3318 26.6186C81.6509 23.7627 84.2812 20.526 84.2812 15.125C84.2812 6.78562 77.5727 0 69.3281 0C61.0835 0 54.375 6.78562 54.375 15.125C54.375 16.8864 54.6741 18.4003 55.1308 19.7629L54.5762 20.3225C53.6287 21.2795 52.2163 21.5641 50.9779 21.0471C49.7382 20.5301 48.9375 19.3174 48.9375 17.9616V13.75H35.3438V17.9616C35.3438 19.1881 34.6668 20.2702 33.5997 20.8642C34.259 21.5215 34.853 22.2406 35.3832 23.0106C37.0348 21.8955 38.0625 20.0255 38.0625 17.9616V16.5H46.2188V17.9616C46.2188 20.4352 47.6787 22.6435 49.938 23.5895C50.687 23.9044 51.4714 24.0556 52.2462 24.0556C53.7347 24.0556 55.1838 23.4795 56.3175 22.418C57.2134 23.9938 58.2927 25.3509 59.3231 26.62C60.779 28.413 62.031 29.9709 62.5299 31.845V37.125C62.5299 40.4443 64.8694 43.2217 67.9674 43.8611V46.75H66.5224C64.0769 46.75 61.8937 48.2268 60.9585 50.512C60.0232 52.7959 60.5357 55.4015 62.2648 57.1478L63.2857 58.1804L57.5179 64.0145L56.497 62.9819C54.7692 61.2343 52.1918 60.7118 49.938 61.6605C47.6787 62.6065 46.2188 64.8161 46.2188 67.2897V68.75H40.2293C39.3403 64.9316 37.3964 61.49 34.6545 58.7854C36.99 59.8922 39.5361 60.5 42.1406 60.5C51.8846 60.5 59.8125 52.481 59.8125 42.625C59.8125 32.769 51.8846 24.75 42.1406 24.75C40.315 24.75 38.5301 25.0401 36.8132 25.5901C37.1735 26.4234 37.4535 27.2965 37.6615 28.1999C39.1038 27.7406 40.6045 27.5 42.1406 27.5C50.3852 27.5 57.0938 34.2856 57.0938 42.625C57.0938 50.9644 50.3852 57.75 42.1406 57.75C39.8936 57.75 37.6982 57.2151 35.6931 56.243C35.2364 56.9676 34.7116 57.6482 34.1353 58.289C32.3613 56.6596 30.2882 55.3217 27.961 54.3812L27.6225 54.2438C27.2188 54.0815 26.9143 53.7281 26.8082 53.3005L26.1829 50.7691C30.015 48.6791 32.625 44.5802 32.625 39.875V30.25H29.9062V39.875C29.9062 45.1811 25.6365 49.5 20.3906 49.5C15.1448 49.5 10.875 45.1811 10.875 39.875V33C10.875 31.4834 12.0944 30.25 13.5938 30.25V27.5C10.595 27.5 8.15625 29.9667 8.15625 33V39.875C8.15625 44.5802 10.7663 48.6791 14.5983 50.7705L13.973 53.3005C13.867 53.7295 13.5625 54.0815 13.1601 54.2451L12.8189 54.3826C5.03105 57.5327 0 65.0499 0 73.5336V85.25H40.7812V73.5336C40.7812 72.8475 40.7364 72.1724 40.6725 71.5H48.9375V67.2884C48.9375 65.9326 49.7382 64.7199 50.9793 64.2015C52.215 63.6831 53.6287 63.9678 54.5762 64.9261L57.5192 67.903L67.1314 58.1804L64.1897 55.2035ZM65.25 16.5H63.8906C63.1403 16.5 62.5312 15.884 62.5312 15.125C62.5312 14.366 63.1403 13.75 63.8906 13.75C64.641 13.75 65.25 14.366 65.25 15.125V16.5ZM70.6875 30.25H67.9688V19.25H70.6875V30.25ZM73.4062 33V35.75H65.25V33H73.4062ZM57.0938 15.125C57.0938 8.30088 62.5815 2.75 69.3281 2.75C76.0747 2.75 81.5625 8.30088 81.5625 15.125C81.5625 19.5401 79.3603 22.2516 77.2302 24.8738C75.898 26.5141 74.5305 28.2068 73.7733 30.25H73.4062V19.25H74.7656C77.014 19.25 78.8438 17.3993 78.8438 15.125C78.8438 12.8507 77.014 11 74.7656 11C72.5172 11 70.6875 12.8507 70.6875 15.125V16.5H67.9688V15.125C67.9688 12.8507 66.139 11 63.8906 11C61.6422 11 59.8125 12.8507 59.8125 15.125C59.8125 17.3993 61.6422 19.25 63.8906 19.25H65.25V30.25H64.883C64.1258 28.2054 62.7583 26.5141 61.4261 24.8738C59.2959 22.2516 57.0938 19.5401 57.0938 15.125ZM73.4062 16.5V15.125C73.4062 14.366 74.0153 13.75 74.7656 13.75C75.516 13.75 76.125 14.366 76.125 15.125C76.125 15.884 75.516 16.5 74.7656 16.5H73.4062ZM65.5001 38.5H73.1548C72.592 40.0964 71.0967 41.25 69.3268 41.25C67.5569 41.25 66.0629 40.0964 65.5001 38.5ZM13.8262 56.936L14.1674 56.7985C15.3786 56.309 16.2921 55.2503 16.6088 53.9674L17.1458 51.7935C18.1816 52.0836 19.2664 52.25 20.3906 52.25C21.5148 52.25 22.5996 52.0836 23.6355 51.7949L24.1724 53.9701C24.4891 55.2516 25.4026 56.309 26.6152 56.7999L26.9537 56.9374C27.1155 57.0034 27.2691 57.0804 27.4281 57.1505L24.6441 63.25H16.1371L13.3531 57.1491C13.5122 57.079 13.6644 57.002 13.8262 56.936ZM23.3894 66L21.0839 71.0517C20.8338 71.5962 19.9448 71.5976 19.696 71.0504L17.3918 66H23.3894ZM38.0625 82.5H33.0682L34.8748 76.1049C35.1861 74.9994 35.3438 73.8595 35.3438 72.7141C35.3438 70.8084 34.8992 68.9013 34.0551 67.1921L33.8403 66.759L31.4111 67.991L31.6245 68.4228C32.2784 69.7496 32.625 71.2332 32.625 72.7141C32.625 73.6037 32.5027 74.4906 32.2593 75.35L30.2393 82.5H10.542L8.52192 75.35C8.27859 74.4906 8.15625 73.6037 8.15625 72.7141C8.15625 71.2332 8.50289 69.7496 9.15539 68.4255L9.37017 67.9924L6.94097 66.7604L6.72483 67.1949C5.88202 68.8999 5.4375 70.8084 5.4375 72.7141C5.4375 73.8595 5.59519 74.9994 5.90648 76.1049L7.71309 82.5H2.71875V73.5336C2.71875 67.2939 5.86842 61.666 10.9443 58.4334L17.2274 72.2012C17.7929 73.4456 19.0353 74.25 20.3906 74.25C21.7459 74.25 22.9884 73.4456 23.5539 72.2026L29.8369 58.4348C34.9128 61.6646 38.0625 67.2925 38.0625 73.5336V82.5Z" fill="#5FA39A"/>
<path d="M35.3438 42.625C35.3438 45.9443 37.6832 48.7217 40.7812 49.3611V52.1372C39.725 51.9777 38.7028 51.645 37.7539 51.1445C37.5677 52.0644 37.2877 52.9581 36.9383 53.823C38.5573 54.593 40.3272 55 42.1406 55C48.8872 55 54.375 49.4491 54.375 42.625C54.375 35.8009 48.8872 30.25 42.1406 30.25C40.731 30.25 39.3457 30.5195 38.0312 30.9939C38.0394 31.2056 38.0625 31.4119 38.0625 31.625V33.9488C38.923 33.5349 39.8392 33.2599 40.7812 33.1169V35.8902C37.6832 36.5282 35.3438 39.3057 35.3438 42.625ZM38.0625 42.625C38.0625 40.3507 39.8922 38.5 42.1406 38.5C44.389 38.5 46.2188 40.3507 46.2188 42.625C46.2188 44.8993 44.389 46.75 42.1406 46.75C39.8922 46.75 38.0625 44.8993 38.0625 42.625ZM43.5 52.14V49.3611C46.1589 48.8125 48.2578 46.6895 48.8002 44H51.5475C50.948 48.2061 47.6583 51.5336 43.5 52.14ZM51.5475 41.25H48.8002C48.2578 38.5605 46.1589 36.4375 43.5 35.8889V33.11C47.6583 33.7164 50.948 37.0439 51.5475 41.25Z" fill="#5FA39A"/>
</svg>
