<svg width="85" height="86" viewBox="0 0 85 86" fill="none" xmlns="http://www.w3.org/2000/svg">
<path d="M40.7812 19.25H21.75V11H40.7812V19.25Z" fill="#9ED6A7"/>
<path d="M21.75 22V34.375V41.25H35.3438V34.375H40.7812V22H21.75Z" fill="#9ED6A7"/>
<path d="M76.125 55.5431V55H80.2031C82.4515 55 84.2812 53.1493 84.2812 50.875V4.125C84.2812 1.85075 82.4515 0 80.2031 0H9.51562C7.26722 0 5.4375 1.85075 5.4375 4.125V35.4846L0.882234 47.0044C0.296344 48.4839 0 50.0431 0 51.6381C0 54.1104 0.716391 56.5043 2.07169 58.5599L8.01623 67.5785L3.09802 82.5H0V85.25H84.2812V82.5H74.6718L73.4334 64.9674C75.1898 62.1376 76.125 58.8926 76.125 55.5431V55.5431ZM50.9766 63.25L50.2466 62.2655C48.4604 59.8565 47.294 57.0061 46.8726 54.0224C46.4159 50.7856 45.5744 47.6025 44.3741 44.5651L43.568 42.5246C43.5217 42.416 43.5 42.3005 43.5 42.0998C43.5 41.6309 43.8765 41.25 44.3401 41.25C46.337 41.25 48.024 42.6965 48.353 44.6875L48.7513 47.1075C48.9796 48.4949 50.1541 49.5 51.5448 49.5C53.1053 49.5 54.375 48.2144 54.375 46.6359V28.875C54.375 28.1174 54.9854 27.5 55.7344 27.5C56.4834 27.5 57.0938 28.1174 57.0938 28.875V46.75H59.8125V39.875C59.8125 39.1174 60.4229 38.5 61.1719 38.5C61.9209 38.5 62.5312 39.1174 62.5312 39.875V46.75H65.25V39.875C65.25 39.1174 65.8604 38.5 66.6094 38.5C67.3584 38.5 67.9688 39.1174 67.9688 39.875V46.75H70.6875V42.625C70.6875 41.8674 71.2979 41.25 72.0469 41.25C72.7959 41.25 73.4062 41.8674 73.4062 42.625V55.5431C73.4062 58.2739 72.6708 60.9207 71.2883 63.25H50.9766ZM24.4688 67.5977L26.6682 60.9249C27.0135 59.8785 27.1875 58.7881 27.1875 57.6854C27.1875 56.7696 27.0516 55.8704 26.8178 55H44.283C44.8335 58.2244 46.1304 61.2975 48.0716 63.9155L48.9049 65.0389L47.6719 82.5H24.4688V67.5977ZM70.6875 38.753C70.6358 38.7723 70.5801 38.7819 70.5298 38.8025C70.0608 37.0494 68.4894 35.75 66.6094 35.75C65.5613 35.75 64.6138 36.1639 63.8906 36.8225C63.1674 36.1625 62.22 35.75 61.1719 35.75C60.6934 35.75 60.2393 35.849 59.8125 36.003V28.875C59.8125 27.0847 58.672 25.5723 57.0938 25.003V17.875C57.0938 17.1174 57.7041 16.5 58.4531 16.5C59.2021 16.5 59.8125 17.1174 59.8125 17.875V23.375C59.8125 25.6493 61.6422 27.5 63.8906 27.5C66.139 27.5 67.9688 25.6493 67.9688 23.375V19.25H65.25V23.375C65.25 24.1326 64.6396 24.75 63.8906 24.75C63.1416 24.75 62.5312 24.1326 62.5312 23.375V17.875C62.5312 15.6007 60.7015 13.75 58.4531 13.75C57.405 13.75 56.4576 14.1639 55.7344 14.8225C55.0112 14.1625 54.0637 13.75 53.0156 13.75C52.4787 13.75 51.9689 13.8614 51.4986 14.0525C51.0296 12.2994 49.4581 11 47.5781 11C45.3297 11 43.5 12.8507 43.5 15.125V30.25H46.2188V15.125C46.2188 14.3674 46.8291 13.75 47.5781 13.75C48.3271 13.75 48.9375 14.3674 48.9375 15.125V22H51.6562V17.875C51.6562 17.1174 52.2666 16.5 53.0156 16.5C53.7646 16.5 54.375 17.1174 54.375 17.875V25.003C52.7968 25.5723 51.6562 27.0847 51.6562 28.875V46.6359C51.6562 46.7541 51.4496 46.7706 51.432 46.6565L51.0337 44.2365C50.4872 40.9118 47.6719 38.5 44.3401 38.5C42.3772 38.5 40.7812 40.1143 40.7812 42.1809C40.7812 42.6525 40.8682 43.1131 41.0409 43.5476L41.847 45.5854C41.9993 45.969 42.1284 46.3609 42.2684 46.75H22.0246L19.2066 42.4751C19.1563 42.3981 19.0883 42.339 19.0312 42.2689V8.25H70.6875V38.753ZM43.1466 49.5C43.398 50.4089 43.6237 51.3246 43.8086 52.25H25.6242C25.5739 52.1689 25.5386 52.0822 25.4856 52.0025L23.8366 49.5H43.1466ZM8.15625 4.125C8.15625 3.36738 8.76661 2.75 9.51562 2.75H80.2031C80.9521 2.75 81.5625 3.36738 81.5625 4.125V50.875C81.5625 51.634 80.9521 52.25 80.2031 52.25H76.125V42.625C76.125 40.8347 74.9845 39.3223 73.4062 38.753V5.5H16.3125V41.272C13.2974 41.3903 10.875 43.8914 10.875 46.9714C10.875 47.9655 11.1319 48.9472 11.6199 49.808L12.9997 52.25H9.51562C8.76661 52.25 8.15625 51.634 8.15625 50.875V4.125ZM2.71875 51.6381C2.71875 50.3951 2.94984 49.1796 3.40659 48.0246L5.4375 42.8904V50.875C5.4375 53.1493 7.26722 55 9.51562 55H14.5535L16.4919 58.432L18.8518 57.068L13.9812 48.4454C13.7283 47.9958 13.5938 47.487 13.5938 46.97C13.5938 45.3324 14.911 44 16.5314 44H16.9446L23.2249 53.5288C24.0392 54.7635 24.4688 56.2004 24.4688 57.6854C24.4688 58.4925 24.341 59.29 24.0881 60.0559L22.1293 66H10.2429L4.33369 57.0336C3.27745 55.4304 2.71875 53.5659 2.71875 51.6381ZM10.4957 68.75H21.75V82.5H5.96494L10.4957 68.75ZM50.3975 82.5L51.5625 66H70.7813L71.9463 82.5H50.3975Z" fill="#5FA39A"/>
<path d="M10.875 22H13.5938V33H10.875V22Z" fill="#5FA39A"/>
<path d="M76.125 22H78.8438V33H76.125V22Z" fill="#5FA39A"/>
<path d="M21.75 22H32.625V24.75H21.75V22Z" fill="#5FA39A"/>
<path d="M35.3438 22H40.7812V24.75H35.3438V22Z" fill="#5FA39A"/>
<path d="M21.75 27.5H40.7812V30.25H21.75V27.5Z" fill="#5FA39A"/>
<path d="M21.75 33H40.7812V35.75H21.75V33Z" fill="#5FA39A"/>
<path d="M21.75 38.5H24.4688V41.25H21.75V38.5Z" fill="#5FA39A"/>
<path d="M27.1875 38.5H29.9062V41.25H27.1875V38.5Z" fill="#5FA39A"/>
<path d="M32.625 38.5H35.3438V41.25H32.625V38.5Z" fill="#5FA39A"/>
</svg>
